<?xml version="1.0" encoding="utf-8"?>
<!-- Generator: Adobe Illustrator 27.5.0, SVG Export Plug-In . SVG Version: 6.00 Build 0)  -->
<svg version="1.1" xmlns="http://www.w3.org/2000/svg" xmlns:xlink="http://www.w3.org/1999/xlink" x="0px" y="0px"
	 viewBox="0 0 750 500" style="enable-background:new 0 0 750 500;" xml:space="preserve">
<g id="Background_Complete">
	<g>
		<g>
			<g>
				<path style="fill:#EBEBEB;" d="M686.463,178.674c2.54,2.612,3.64,6.405,3.477,10.045c-0.162,3.64-1.483,7.147-3.239,10.339
					c-3.397,6.177-9.767,11.205-15.859,14.753c-3.499-7.004-1.34-15.826,0.036-20.233
					C673.054,186.613,681.215,175.346,686.463,178.674"/>
			</g>
		</g>
		<g>
			<g>
				<path style="fill:#EBEBEB;" d="M672.79,227.111c0.632-4.021,3.806-7.412,7.647-8.761c3.84-1.349,8.203-0.795,11.839,1.035
					c1.681,0.846,3.349,2.123,3.755,3.961c0.38,1.718-0.49,3.54-1.837,4.672c-1.347,1.132-3.094,1.674-4.828,1.973
					C683.419,231.014,677.476,230.913,672.79,227.111"/>
			</g>
		</g>
		<g>
			<g>
				<g>
					<path style="fill:#E0E0E0;" d="M657.628,244.102c-0.03-0.021,0.24-0.463,0.741-1.25c0.556-0.865,1.275-1.984,2.138-3.327
						c1.839-2.759,4.383-6.748,8.438-9.968c4.019-3.223,8.508-4.968,11.852-5.376c1.67-0.226,3.042-0.206,3.975-0.105
						c0.469,0.031,0.826,0.116,1.07,0.152c0.243,0.045,0.368,0.077,0.366,0.094c-0.005,0.122-2.076-0.324-5.356,0.217
						c-3.268,0.491-7.636,2.25-11.588,5.418c-3.974,3.153-6.542,7.062-8.456,9.771c-0.95,1.372-1.721,2.483-2.274,3.237
						C657.981,243.718,657.656,244.122,657.628,244.102z"/>
				</g>
			</g>
		</g>
		<g>
			<g>
				<g>
					<path style="fill:#E0E0E0;" d="M681.007,187.803c0.016,0.006-0.043,0.215-0.172,0.608c-0.152,0.442-0.346,1.009-0.587,1.711
						c-0.519,1.483-1.296,3.618-2.28,6.248c-1.966,5.26-4.783,12.491-8.074,20.403c-3.294,7.914-6.437,15.009-8.783,20.112
						c-1.172,2.551-2.138,4.608-2.825,6.021c-0.328,0.665-0.593,1.203-0.799,1.622c-0.188,0.369-0.294,0.558-0.31,0.551
						c-0.016-0.008,0.059-0.212,0.217-0.594c0.184-0.429,0.42-0.98,0.712-1.662c0.657-1.496,1.565-3.56,2.676-6.086
						c2.261-5.138,5.349-12.251,8.641-20.16c3.288-7.907,6.157-15.111,8.208-20.336c1.009-2.568,1.833-4.667,2.431-6.188
						c0.278-0.688,0.502-1.244,0.677-1.677C680.898,187.995,680.99,187.797,681.007,187.803z"/>
				</g>
			</g>
		</g>
		<g>
			<g>
				<path style="fill:#EBEBEB;" d="M661.729,227.176c1.981-8.35-0.39-17.608-6.139-23.979c-1.464-1.622-3.611-3.172-5.667-2.431
					c-2.059,0.742-2.725,3.318-2.766,5.506c-0.171,9.106,5.76,18.021,14.224,21.384"/>
			</g>
		</g>
		<g>
			<g>
				<g>
					<path style="fill:#E0E0E0;" d="M653.949,209.705c0.026-0.023,0.362,0.326,0.95,0.981c0.296,0.325,0.657,0.726,1.021,1.235
						c0.364,0.508,0.834,1.05,1.236,1.729c0.423,0.665,0.903,1.385,1.316,2.217c0.461,0.807,0.858,1.716,1.271,2.676
						c0.775,1.938,1.448,4.147,1.818,6.534c0.348,2.391,0.361,4.702,0.18,6.783c-0.123,1.038-0.236,2.024-0.454,2.929
						c-0.161,0.916-0.42,1.742-0.644,2.498c-0.197,0.765-0.504,1.414-0.717,2.001c-0.211,0.59-0.453,1.072-0.653,1.464
						c-0.393,0.788-0.625,1.214-0.656,1.197c-0.105-0.048,0.82-1.77,1.679-4.766c0.199-0.753,0.435-1.572,0.575-2.478
						c0.197-0.894,0.292-1.867,0.401-2.889c0.152-2.048,0.125-4.316-0.216-6.664c-0.364-2.344-1.012-4.518-1.75-6.435
						c-0.394-0.949-0.77-1.851-1.209-2.655c-0.391-0.829-0.847-1.55-1.245-2.22C655.199,211.201,653.864,209.777,653.949,209.705z"
						/>
				</g>
			</g>
		</g>
	</g>
	<g>
		<g>
			<g>
				<path style="fill:#EBEBEB;" d="M65.061,116.343c0,0-9.202,2.967-0.278,22.694c8.923,19.727,15.285,29.584,15.285,29.584
					s1.533,4.554-2.264,5.072c-3.797,0.518-12.025-1.194-13.918,3.334c-1.964,4.696,1.295,9.367,8.145,13.651
					c6.851,4.285,21.515,14.222,22.838,15.126c1.299,0.887,2.542,3.031,0.011,3.799c-2.53,0.767-21.267,1.837-20.228,10.698
					c1.04,8.861,22.086,17.661,24.368,18.667c2.282,1.006,2.792,2.018,2.542,3.285c-0.249,1.267-6.581,1.033-11.898,1.555
					c-5.317,0.523-11.39,2.06-10.362,7.122c1.028,5.062,13.218,16.168,43.874,20.634l14.341,1.139l8.386-11.767
					c16.413-26.275,15.821-42.755,12.624-46.812c-3.197-4.057-8.297-0.418-12.133,3.3c-3.836,3.718-7.751,8.7-8.879,8.071
					c-1.128-0.629-1.57-1.671-0.862-4.063c0.708-2.392,7.601-24.137,1.513-30.659c-6.087-6.522-19.017,7.081-21.239,8.516
					c-2.221,1.434-3.053-0.9-2.891-2.465c0.166-1.593,2.065-19.206,3.226-27.202c1.16-7.996-0.296-13.502-5.148-15.039
					c-4.679-1.483-8.692,5.901-11.542,8.463c-2.85,2.562-5.333-1.552-5.333-1.552s-3.408-11.226-12.688-30.787
					c-9.28-19.561-17.674-14.29-17.674-14.29"/>
			</g>
		</g>
		<g>
			<g>
				<g>
					<path style="fill:#E0E0E0;" d="M138.103,276.115c-6.759-14.393-18.342-40.175-28.402-62.259
						c-10.057-22.076-19.18-42.055-25.865-56.481c-3.345-7.197-6.054-13.027-7.935-17.076c-0.929-2.003-1.654-3.565-2.154-4.645
						c-0.236-0.52-0.419-0.923-0.55-1.213c-0.122-0.274-0.174-0.42-0.174-0.42s0.08,0.132,0.215,0.4
						c0.141,0.285,0.337,0.682,0.59,1.194c0.518,1.071,1.268,2.621,2.23,4.609c1.933,4.005,4.688,9.819,8.064,17.017
						c6.759,14.393,15.929,34.353,25.985,56.429c10.06,22.084,21.597,47.885,28.283,62.311"/>
				</g>
			</g>
		</g>
		<g>
			<g>
				<g>
					<path style="fill:#E0E0E0;" d="M75.298,179.884c0.012-0.028,0.363,0.089,0.989,0.326c0.627,0.234,1.522,0.6,2.625,1.061
						c2.203,0.928,5.213,2.287,8.508,3.846c3.243,1.55,6.176,2.951,8.42,4.023c1.014,0.477,1.87,0.879,2.558,1.203
						c0.605,0.281,0.935,0.451,0.923,0.479c-0.011,0.028-0.364-0.086-0.991-0.319c-0.626-0.236-1.523-0.602-2.62-1.075
						c-2.194-0.95-5.186-2.347-8.48-3.907c-3.253-1.525-6.194-2.906-8.445-3.961c-1.017-0.472-1.875-0.87-2.565-1.19
						C75.614,180.084,75.286,179.913,75.298,179.884z"/>
				</g>
			</g>
		</g>
		<g>
			<g>
				<g>
					<path style="fill:#E0E0E0;" d="M100.344,189.951c-0.114-0.048,2.414-6.377,5.647-14.135c3.233-7.761,5.946-14.012,6.06-13.965
						c0.114,0.048-2.414,6.376-5.647,14.137C103.171,183.746,100.458,189.998,100.344,189.951z"/>
				</g>
			</g>
		</g>
		<g>
			<g>
				<g>
					<path style="fill:#E0E0E0;" d="M114.261,224.555c-0.023-0.02,0.201-0.325,0.625-0.859c0.485-0.603,1.092-1.355,1.811-2.248
						c1.526-1.9,3.623-4.533,5.829-7.522c2.214-2.986,4.124-5.757,5.49-7.775c0.644-0.949,1.186-1.749,1.621-2.389
						c0.386-0.562,0.612-0.866,0.638-0.85c0.026,0.016-0.15,0.351-0.491,0.942c-0.342,0.591-0.851,1.438-1.504,2.469
						c-1.301,2.065-3.175,4.874-5.395,7.868c-2.213,2.998-4.354,5.608-5.945,7.459c-0.799,0.923-1.454,1.662-1.922,2.159
						C114.552,224.309,114.284,224.575,114.261,224.555z"/>
				</g>
			</g>
		</g>
		<g>
			<g>
				<g>
					<path style="fill:#E0E0E0;" d="M89.602,220.436c0.005-0.031,0.354-0.007,0.98,0.063c0.72,0.091,1.605,0.204,2.648,0.336
						c2.233,0.303,5.313,0.752,8.711,1.275c3.399,0.523,6.472,1.021,8.693,1.404c1.035,0.188,1.912,0.347,2.626,0.476
						c0.619,0.122,0.959,0.204,0.954,0.235c-0.005,0.03-0.353,0.007-0.98-0.063c-0.72-0.091-1.605-0.204-2.648-0.336
						c-2.233-0.303-5.314-0.752-8.713-1.275c-3.398-0.523-6.471-1.021-8.691-1.404c-1.035-0.188-1.912-0.347-2.627-0.476
						C89.937,220.548,89.598,220.466,89.602,220.436z"/>
				</g>
			</g>
		</g>
		<g>
			<g>
				<g>
					<path style="fill:#E0E0E0;" d="M98.007,252.546c0.004-0.031,0.451,0.004,1.254,0.093c0.885,0.109,2.025,0.249,3.395,0.418
						c2.864,0.372,6.817,0.917,11.178,1.545c4.363,0.629,8.308,1.223,11.161,1.675c1.362,0.225,2.496,0.413,3.375,0.558
						c0.795,0.142,1.233,0.234,1.229,0.265c-0.005,0.031-0.451-0.004-1.254-0.093c-0.885-0.109-2.025-0.249-3.395-0.418
						c-2.864-0.372-6.817-0.917-11.179-1.545c-4.361-0.629-8.306-1.223-11.159-1.675c-1.361-0.225-2.496-0.413-3.375-0.558
						C98.44,252.669,98.003,252.576,98.007,252.546z"/>
				</g>
			</g>
		</g>
		<g>
			<g>
				<g>
					<path style="fill:#E0E0E0;" d="M128.874,256.778c-0.024-0.019,0.249-0.413,0.764-1.109c0.566-0.757,1.304-1.744,2.193-2.933
						c1.849-2.478,4.39-5.911,7.087-9.78c2.704-3.866,5.059-7.429,6.746-10.02c0.811-1.244,1.485-2.277,2.001-3.068
						c0.476-0.723,0.751-1.115,0.777-1.099c0.026,0.016-0.199,0.439-0.629,1.19c-0.43,0.751-1.07,1.828-1.882,3.146
						c-1.62,2.637-3.938,6.235-6.647,10.107c-2.702,3.875-5.287,7.285-7.203,9.717c-0.961,1.214-1.748,2.188-2.307,2.849
						C129.217,256.44,128.898,256.797,128.874,256.778z"/>
				</g>
			</g>
		</g>
	</g>
	<g>
		<g>
			<g>
				<g>
					<g>
						<path style="fill:#F5F5F5;" d="M362.468,234.649c-25.619-12.894-35.261-42.306-38.261-69.564
							c-0.501-4.55-1.689-9.251-0.109-13.536c1.581-4.283,6.213-7.725,10.543-6.403c3.591,1.097,5.622,4.796,7.971,7.759
							c3.125,3.942,7.368,6.965,12.085,8.607c3.1,1.079,6.799,1.479,9.418-0.503c3.594-2.719,3.274-8.182,2.596-12.682
							c-1.267-8.386-2.531-16.772-3.797-25.156c-0.679-4.499-1.357-9.095-0.574-13.571c0.783-4.476,3.304-8.894,7.414-10.714
							c4.112-1.819,9.766-0.115,11.307,4.162c0.642,1.78,0.543,3.738,0.939,5.589c0.395,1.852,1.565,3.794,3.416,4.058
							c1.874,0.268,3.491-1.269,4.647-2.782c3.991-5.219,6.298-11.532,8.404-17.783c2.106-6.251,4.105-12.628,7.605-18.197
							c3.5-5.569,8.766-10.342,15.162-11.64c6.397-1.297,13.844,1.69,16.389,7.786c2.552,6.113-0.221,13.089-3.508,18.811
							c-4.877,8.489-10.977,16.255-18.045,22.975c-1.274,1.213-2.655,2.524-2.957,4.27c-0.544,3.144,2.732,5.714,5.839,6.273
							c3.518,0.633,7.11-0.242,10.681-0.336c3.571-0.094,7.599,0.905,9.407,4.031c2.51,4.336-0.642,9.717-3.973,13.425
							c-6.67,7.424-14.608,13.675-23.358,18.395c-3.137,1.691-6.47,3.258-8.805,5.972c-2.335,2.715-3.362,6.995-1.29,9.933
							c2.074,2.943,6.363,3.359,9.74,2.213c3.376-1.144,6.21-3.477,9.336-5.203c5.851-3.231,13.904-3.959,18.642,0.816
							c3.113,3.139,4.051,8.002,3.339,12.383c-0.711,4.381-2.862,8.377-5.218,12.116c-8.237,13.071-19.58,24.275-33.217,31.328
							C390.597,234.534,377.49,237.804,362.468,234.649"/>
					</g>
				</g>
			</g>
		</g>
		<g>
			<g>
				<g>
					<g>
						<g>
							<path style="fill:#E0E0E0;" d="M367.012,216.632c2.013-14.266,5.518-29.721,9.738-45.76c1.07-4.005,2.127-7.963,3.168-11.864
								c1.049-3.891,2.089-7.751,3.34-11.462c2.469-7.436,5.41-14.397,8.408-20.916c2.996-6.524,6.077-12.605,8.999-18.27
								c2.936-5.662,5.771-10.887,8.559-15.539c5.547-9.33,10.902-16.31,14.774-20.952c1.931-2.329,3.488-4.086,4.56-5.263
								c0.517-0.56,0.922-1,1.227-1.331c0.28-0.296,0.429-0.443,0.439-0.433c0.012,0.01-0.116,0.176-0.375,0.491
								c-0.29,0.345-0.675,0.803-1.165,1.386c-1.029,1.213-2.545,3.003-4.436,5.36c-3.788,4.701-9.051,11.711-14.517,21.052
								c-2.748,4.658-5.546,9.887-8.45,15.555c-2.893,5.676-5.947,11.759-8.917,18.275c-2.97,6.513-5.884,13.454-8.328,20.852
								c-1.238,3.693-2.265,7.519-3.314,11.421c-1.04,3.898-2.095,7.855-3.163,11.858c-4.216,16.026-7.734,31.438-9.784,45.655"/>
						</g>
					</g>
				</g>
			</g>
		</g>
		<g>
			<g>
				<g>
					<g>
						<g>
							<path style="fill:#E0E0E0;" d="M383.49,147.481c-0.054,0.017-0.306-0.645-0.718-1.857c-0.417-1.21-0.961-2.98-1.601-5.178
								c-1.285-4.392-2.852-10.517-4.555-17.277c-1.703-6.764-3.353-12.849-4.701-17.209c-0.668-2.182-1.226-3.943-1.628-5.154
								c-0.395-1.215-0.588-1.897-0.534-1.919c0.054-0.021,0.35,0.622,0.839,1.806c0.496,1.18,1.143,2.917,1.884,5.083
								c1.498,4.329,3.246,10.415,4.95,17.185c1.663,6.675,3.167,12.714,4.316,17.328c0.532,2.081,0.982,3.835,1.343,5.242
								C383.398,146.769,383.546,147.464,383.49,147.481z"/>
						</g>
					</g>
				</g>
			</g>
		</g>
		<g>
			<g>
				<g>
					<g>
						<g>
							<path style="fill:#E0E0E0;" d="M439.824,128.291c0.01,0.057-0.8,0.272-2.269,0.61c-1.467,0.347-3.591,0.838-6.196,1.528
								c-5.22,1.339-12.366,3.441-20.149,6.105c-7.781,2.679-14.718,5.403-19.679,7.518c-2.49,1.04-4.481,1.936-5.861,2.547
								c-1.378,0.617-2.152,0.933-2.179,0.881c-0.026-0.053,0.701-0.469,2.039-1.179c1.34-0.703,3.299-1.684,5.764-2.799
								c4.914-2.262,11.842-5.083,19.646-7.771c7.806-2.671,15.006-4.691,20.279-5.884c2.632-0.618,4.782-1.022,6.274-1.269
								C438.984,128.339,439.813,128.232,439.824,128.291z"/>
						</g>
					</g>
				</g>
			</g>
		</g>
		<g>
			<g>
				<g>
					<g>
						<g>
							<path style="fill:#E0E0E0;" d="M367.57,215.464c-0.025,0.016-0.195-0.208-0.499-0.648c-0.35-0.528-0.776-1.172-1.293-1.952
								c-1.115-1.7-2.665-4.201-4.538-7.316c-3.752-6.229-8.664-14.996-13.954-24.744c-5.293-9.752-10.117-18.553-13.733-24.851
								c-1.768-3.06-3.224-5.577-4.305-7.448c-0.465-0.813-0.847-1.483-1.161-2.034c-0.257-0.469-0.381-0.723-0.356-0.74
								c0.025-0.014,0.195,0.209,0.5,0.65c0.349,0.527,0.776,1.17,1.293,1.95c1.115,1.7,2.665,4.201,4.539,7.317
								c3.752,6.229,8.664,14.996,13.956,24.748c5.291,9.749,10.115,18.549,13.731,24.848c1.77,3.059,3.224,5.577,4.305,7.446
								c0.465,0.813,0.847,1.485,1.161,2.034C367.471,215.195,367.595,215.449,367.57,215.464z"/>
						</g>
					</g>
				</g>
			</g>
		</g>
		<g>
			<g>
				<g>
					<g>
						<g>
							<path style="fill:#E0E0E0;" d="M440.923,179.546c0.011,0.027-0.236,0.172-0.718,0.425c-0.572,0.288-1.275,0.643-2.126,1.072
								c-1.967,0.968-4.622,2.273-7.853,3.861c-6.63,3.262-15.736,7.872-25.79,12.979c-10.057,5.11-19.215,9.64-25.914,12.765
								c-3.349,1.564-6.072,2.801-7.971,3.618c-0.879,0.372-1.603,0.678-2.192,0.928c-0.505,0.204-0.777,0.297-0.788,0.27
								c-0.011-0.027,0.237-0.172,0.718-0.427c0.571-0.287,1.274-0.641,2.126-1.07c1.967-0.968,4.621-2.272,7.852-3.861
								c6.63-3.261,15.737-7.872,25.794-12.981c10.054-5.109,19.21-9.638,25.91-12.763c3.349-1.564,6.072-2.802,7.972-3.618
								c0.879-0.372,1.602-0.679,2.192-0.928C440.64,179.613,440.91,179.52,440.923,179.546z"/>
						</g>
					</g>
				</g>
			</g>
		</g>
	</g>
	<g>
		<path style="fill:#F5F5F5;" d="M568.221,111.647c0-16.315-17.143-26.651-34.62-18.473c-3.947,1.847-7.213,4.973-9.196,8.815
			c-4.397,8.518-2.456,18.245,1.532,26.321l13.602,34.474c1.961,4.969,9.003,4.939,10.921-0.046l13.337-34.654
			C568.415,117.53,568.221,111.647,568.221,111.647z M551.801,125.845c-11.75,6.831-23.657-5.796-17.217-18.258
			c0.857-1.658,2.169-3.049,3.731-3.958c11.75-6.833,23.659,5.796,17.217,18.258C554.675,123.545,553.364,124.936,551.801,125.845z"
			/>
	</g>
</g>
<g id="Background_Simple" style="display:none;">
	<path style="display:inline;fill:#E0E0E0;" d="M636.393,230.315c11.515-43.011,0.937-91.328-27.498-125.592
		s-73.972-53.57-118.37-50.182c-44.397,3.388-86.478,29.38-109.384,67.562c-7.737,12.897-13.619,27.333-24.645,37.562
		c-14.913,13.835-36.673,17.491-57.009,17.016c-20.336-0.475-40.594-4.427-60.895-3.14c-35.993,2.283-70.801,22.394-89.259,53.378
		c-18.458,30.985-19.28,72.149-0.586,102.991c15.347,25.319,41.985,42.267,70.193,51.262c28.208,8.995,58.158,10.799,87.755,11.564
		c65.599,1.694,132.722-1.678,193.863-25.507c61.141-23.829,116.02-71.012,135.29-133.739"/>
	<path style="display:inline;fill:#E0E0E0;" d="M112.213,51.891c8.99-17.029,26.992-28.674,47.676-26.538
		c8.811-0.524,24.759,5.341,34.976,16.821c10.217,11.479,14.402,28.412,10.413,43.253c-4.999,18.596-15.847,31.867-34.481,36.722
		c-18.634,4.855-39.874-1.519-52.339-16.196S103.224,68.92,112.213,51.891z"/>
</g>
<g id="Floor">
	<g>
		<g>
			<path style="fill:#263238;" d="M709.964,444.083c0,0.144-149.98,0.26-334.948,0.26c-185.032,0-334.98-0.117-334.98-0.26
				s149.948-0.26,334.98-0.26C559.983,443.823,709.964,443.939,709.964,444.083z"/>
		</g>
	</g>
</g>
<g id="Device">
	<g>
		<g>
			<g>
				<g>
					<g>
						<g>
							<g>
								<path style="fill:#455A64;" d="M324.163,444.083l-132.92-0.615c-15.986-0.073-28.888-13.09-28.82-29.076l1.409-333.235
									c0.068-15.995,13.092-28.906,29.088-28.832l132.921,0.614c15.987,0.074,28.888,13.09,28.82,29.077l-1.409,333.235
									C353.183,431.247,340.158,444.157,324.163,444.083z"/>
							</g>
						</g>
						<g>
							<g>
								<path style="fill:#FAFAFA;" d="M325.65,64.44l-25.771-0.119c-3.456-0.015-6.271,2.901-6.285,6.513l-0.021,4.675
									c-0.014,3.613-2.829,6.529-6.285,6.513l-50.234-0.232c-3.456-0.016-6.245-2.958-6.23-6.571l0.02-4.675
									c0.015-3.613-2.775-6.555-6.231-6.571l-9.064-0.042l-22.556-0.104c-11.202-0.051-20.324,8.99-20.371,20.192l-1.375,325.261
									c-0.047,11.197,8.988,20.313,20.184,20.365l132.655,0.612c11.201,0.052,20.323-8.989,20.371-20.192l1.375-325.262
									C345.88,73.607,336.845,64.492,325.65,64.44z"/>
							</g>
						</g>
					</g>
				</g>
			</g>
		</g>
		<g>
			<polygon style="fill:#EBEBEB;" points="172.458,123.051 194.199,123.051 213.604,142.456 193.433,162.626 172.688,141.882 			"/>
		</g>
		<g>
			<polygon style="fill:#EBEBEB;" points="218.029,133.945 207.135,123.051 231.646,123.051 			"/>
		</g>
		<g>
			<path style="fill:#EBEBEB;" d="M227.561,142.839l19.085-19.085h66.703c0,0,10.213,45.597-29.958,74.874L227.561,142.839z"/>
		</g>
		<g>
			<polygon style="fill:#EBEBEB;" points="219.391,148.924 198.965,169.35 255.477,225.862 275.903,204.755 			"/>
		</g>
		<g>
			<polygon style="fill:#EBEBEB;" points="172.213,180.925 185.007,167.648 172.458,155.099 			"/>
		</g>
		<g>
			<polygon style="fill:#EBEBEB;" points="192.667,175.478 173.007,195.138 173.007,222.457 213.604,263.99 247.987,231.99 			"/>
		</g>
		<g>
			<path style="fill:#EBEBEB;" d="M290.981,204.357c0,0,42.114-30.88,28.497-80.604h26.191l-0.318,140.356L290.981,204.357z"/>
		</g>
		<g>
			<polygon style="fill:#EBEBEB;" points="283.085,212.459 262.717,233.722 325.164,296.17 344.264,275.93 			"/>
		</g>
		<g>
			<polygon style="fill:#EBEBEB;" points="254.212,239.542 222.204,271.325 286.219,334.892 318.166,304.004 			"/>
		</g>
		<g>
			<polygon style="fill:#EBEBEB;" points="237.434,398.771 286.367,348.046 332.918,395.498 			"/>
		</g>
		<g>
			<path style="fill:#EBEBEB;" d="M294.003,341.501l50.959-50.485c0,2.242-0.443,104.715-0.443,104.715L294.003,341.501z"/>
		</g>
		<g>
			<polygon style="fill:#EBEBEB;" points="250.369,313.138 279.276,342.046 222.204,400.953 195.826,369.318 			"/>
		</g>
		<g>
			<path style="fill:#EBEBEB;" d="M172.261,373.422c2.727-0.273,72.638-65.738,72.638-65.738l-72.638-75.269V373.422z"/>
		</g>
		<g>
			<polyline style="fill:#EBEBEB;" points="171.248,388.34 188.08,373.422 211.387,400.953 171.248,400.953 171.248,390.421 			"/>
		</g>
		<g>
			<g>
				<g>
					<path style="fill:#263238;" d="M193.031,103.233c-0.099,0.105-2.335-1.84-4.994-4.344l-0.002-0.002
						c-0.001-0.759,0.001-0.211,0.001-0.381l0.004-0.004l0.008-0.007l0.016-0.015l0.031-0.029l0.062-0.058l0.124-0.116l0.245-0.229
						c0.162-0.151,0.323-0.3,0.481-0.447c0.312-0.286,0.617-0.565,0.915-0.839c0.548-0.488,1.07-0.953,1.57-1.399
						c0.904-0.785,1.488-1.245,1.538-1.192c0.049,0.052-0.446,0.607-1.286,1.461c-0.476,0.471-0.973,0.964-1.494,1.48
						c-0.292,0.281-0.589,0.567-0.894,0.861c-0.157,0.149-0.315,0.3-0.476,0.453l-0.244,0.231l-0.123,0.116l-0.062,0.058
						l-0.031,0.029l-0.016,0.015l-0.008,0.007l-0.004,0.004c0-0.169-0.002,0.38-0.001-0.377l0.002,0.002
						C191.053,101.013,193.129,103.128,193.031,103.233z"/>
				</g>
			</g>
			<g>
				<g>
					<path style="fill:#263238;" d="M331.253,95.605c0,0.599-0.486,1.085-1.085,1.085s-1.085-0.486-1.085-1.085
						c0-0.599,0.486-1.085,1.085-1.085S331.253,95.006,331.253,95.605z"/>
				</g>
				<g>
					<path style="fill:#263238;" d="M330.935,98.569c0.424,0.424,0.424,1.11,0,1.534c-0.424,0.424-1.11,0.424-1.534,0
						c-0.424-0.424-0.424-1.11,0-1.534C329.825,98.145,330.512,98.145,330.935,98.569z"/>
				</g>
				<g>
					<path style="fill:#263238;" d="M331.253,103.067c0,0.599-0.486,1.085-1.085,1.085s-1.085-0.486-1.085-1.085
						c0-0.599,0.486-1.085,1.085-1.085S331.253,102.468,331.253,103.067z"/>
				</g>
			</g>
		</g>
		<g>
			<rect x="237.609" y="100.034" style="fill:#263238;" width="46.776" height="3.897"/>
		</g>
		<g>
			<path style="fill:#283384;" d="M279.305,170.043c0-18.223-19.147-29.768-38.669-20.633c-4.409,2.063-8.057,5.555-10.272,9.846
				c-4.911,9.514-2.743,20.379,1.711,29.399l15.193,38.506c2.19,5.55,10.056,5.517,12.198-0.051l14.897-38.706
				C279.521,176.614,279.305,170.043,279.305,170.043z M260.964,185.902c-13.124,7.63-26.424-6.474-19.23-20.393
				c0.957-1.852,2.422-3.406,4.168-4.421c13.124-7.632,26.426,6.474,19.23,20.394C264.174,183.333,262.709,184.887,260.964,185.902z
				"/>
		</g>
	</g>
</g>
<g id="Car">
	<g>
		<g>
			<g>
				<g>
					<g>
						<rect x="122.251" y="309.118" style="fill:#283384;" width="554.818" height="81.407"/>
					</g>
				</g>
				<g style="opacity:0.5;">
					<g>
						<rect x="122.251" y="309.118" width="554.818" height="81.407"/>
					</g>
				</g>
			</g>
			<g>
				<g>
					<g>
						<g>
							<g>
								<g>
									<g>
										
											<ellipse transform="matrix(0.9977 -0.0671 0.0671 0.9977 -25.7348 14.0905)" style="fill:#263238;" cx="196.802" cy="389.984" rx="53.499" ry="53.498"/>
									</g>
								</g>
							</g>
						</g>
					</g>
				</g>
				<g>
					<g>
						<g>
							<g>
								<g>
									<g>
										<path style="fill:#263238;" d="M143.318,389.075c-0.001,0.046-0.009,0.092-0.009,0.138
											c-0.426,29.543,23.178,53.838,52.721,54.264c29.544,0.426,53.839-23.178,54.265-52.721
											c0.001-0.047-0.005-0.092-0.005-0.138L143.318,389.075z"/>
									</g>
								</g>
							</g>
						</g>
					</g>
				</g>
				<g>
					<g>
						<g>
							<g>
								<g>
									<g>
										<path style="fill:#FAFAFA;" d="M159.247,389.442c-0.299,20.742,16.272,37.799,37.013,38.098
											c20.742,0.299,37.799-16.272,38.098-37.014c0.299-20.741-16.273-37.798-37.015-38.097
											C176.602,352.129,159.546,368.701,159.247,389.442z"/>
									</g>
								</g>
							</g>
						</g>
					</g>
				</g>
				<g>
					<g>
						<g>
							<g>
								<g>
									<g>
										<path style="fill:#E0E0E0;" d="M197.344,352.428c-20.742-0.299-37.798,16.273-38.097,37.014l75.111,1.083
											C234.657,369.784,218.086,352.727,197.344,352.428z"/>
									</g>
								</g>
							</g>
						</g>
					</g>
				</g>
				<g>
					<g>
						<g>
							<g>
								<g>
									<g>
										<path style="fill:#263238;" d="M173.925,389.654c-0.182,12.635,9.912,23.025,22.547,23.207
											c12.635,0.182,23.026-9.912,23.208-22.547c0.182-12.635-9.913-23.025-22.548-23.207
											C184.498,366.924,174.108,377.019,173.925,389.654z"/>
									</g>
								</g>
							</g>
						</g>
					</g>
				</g>
			</g>
			<g>
				<g>
					<g>
						<g>
							<g>
								<g>
									<g>
										
											<ellipse transform="matrix(0.9983 -0.0578 0.0578 0.9983 -21.5384 35.6914)" style="fill:#263238;" cx="605.903" cy="389.984" rx="53.499" ry="53.498"/>
									</g>
								</g>
							</g>
						</g>
					</g>
				</g>
				<g>
					<g>
						<g>
							<g>
								<g>
									<g>
										<path style="fill:#263238;" d="M552.419,389.075c-0.001,0.046-0.009,0.092-0.009,0.138
											c-0.426,29.543,23.178,53.838,52.721,54.264c29.544,0.426,53.839-23.178,54.265-52.721
											c0.001-0.047-0.005-0.092-0.005-0.138L552.419,389.075z"/>
									</g>
								</g>
							</g>
						</g>
					</g>
				</g>
				<g>
					<g>
						<g>
							<g>
								<g>
									<g>
										<path style="fill:#FAFAFA;" d="M568.348,389.442c-0.299,20.742,16.272,37.799,37.013,38.098
											c20.742,0.299,37.799-16.272,38.098-37.014c0.299-20.741-16.273-37.798-37.015-38.098
											C585.703,352.129,568.647,368.701,568.348,389.442z"/>
									</g>
								</g>
							</g>
						</g>
					</g>
				</g>
				<g>
					<g>
						<g>
							<g>
								<g>
									<g>
										<path style="fill:#E0E0E0;" d="M606.445,352.428c-20.742-0.299-37.798,16.273-38.097,37.014l75.111,1.083
											C643.758,369.784,627.187,352.727,606.445,352.428z"/>
									</g>
								</g>
							</g>
						</g>
					</g>
				</g>
				<g>
					<g>
						<g>
							<g>
								<g>
									<g>
										<path style="fill:#263238;" d="M583.026,389.654c-0.182,12.635,9.912,23.025,22.547,23.207
											c12.635,0.182,23.026-9.912,23.208-22.547c0.182-12.635-9.913-23.025-22.548-23.207
											C593.599,366.924,583.209,377.019,583.026,389.654z"/>
									</g>
								</g>
							</g>
						</g>
					</g>
				</g>
			</g>
			<g>
				<g>
					<path style="fill:#283384;" d="M266.932,263.318c0,0-78.781,5.81-107.981,12.36c-20.579,4.616-60.261,12.58-59.782,37.546
						l3.147,17.895c0,0-14.723,6.723-14.723,23.877c0,17.154-3.594,43.766,30.763,44.83c5.662,0.175,16.418,0,16.418,0
						s-6.596-73.173,60.63-75.315c68.389-2.178,63.846,74.646,63.846,74.646h285.426c0,0-11.715-74.848,61.906-74.953
						c73.621-0.106,62.42,75.443,62.42,75.443s27.082,2.344,39.683-20.418c12.601-22.762,9.321-38.963,9.321-38.963l-0.417-14.386
						c-0.142-4.898-4.055-8.849-8.952-9.037l0,0c0,0,4.919-36.226-2.628-42.496c-7.547-6.27-48.923-44.093-48.923-44.093
						l1.971-1.238c3.302-2.074,2.729-7.048-0.958-8.316c-15.707-5.402-46.766-16.089-54.069-18.644
						c-1.099-0.385-2.231-0.623-3.392-0.712c-4.356-0.335-16.694-1.116-39.343-1.358c-27.591-0.294-137.134,0-137.134,0
						s-37.698,3.1-58.701,12.345C343.379,222.05,266.932,263.318,266.932,263.318z"/>
				</g>
			</g>
			<g style="opacity:0.4;">
				<g>
					<g>
						<path d="M107.566,353.015c-2.856-0.582-7.238-0.638-9.415,1.3c-1.617,1.439-2.047,3.764-2.293,5.915
							c-0.338,2.953-0.506,5.98,0.197,8.868c0.703,2.888,2.387,5.653,4.999,7.072c2.612,1.419,6.197,1.186,8.228-0.984
							c1.856-1.984,2.07-4.963,2.021-7.68c-0.069-3.858,0.24-7.127-0.47-10.92c-0.135-0.721-0.516-1.636-0.983-2.202
							C109.094,353.468,108.514,353.071,107.566,353.015"/>
					</g>
				</g>
			</g>
			<g>
				<g>
					<path style="fill:#FAFAFA;" d="M102.316,331.119c8.364,0.018,16.475-0.46,24.82-1.016c0.902-0.06,1.88-0.155,2.544-0.77
						c0.798-0.739,0.862-1.958,0.871-3.045c0.039-4.482-0.183-9.576-3.583-12.497c-2.077-1.785-4.927-2.339-7.654-2.595
						c-6.713-0.632-13.751-0.111-20.145,2.029L102.316,331.119z"/>
				</g>
			</g>
			<g>
				<g>
					<g>
						<path style="fill:#FFFFFF;" d="M275.974,396.866c0,0-0.031-0.241-0.065-0.714c-0.032-0.489-0.078-1.188-0.138-2.098
							c-0.102-1.863-0.25-4.578-0.441-8.072c-0.196-3.503-0.429-7.792-0.932-12.749c-0.516-4.949-1.277-10.592-2.949-16.631
							c-1.677-6.025-4.249-12.451-8.053-18.755c-3.822-6.259-8.842-12.517-15.562-17.358c-13.499-9.598-31.725-15.026-50.795-15.259
							c-19.117-0.228-37.278,5.812-50.434,15.88c-6.642,4.931-12.138,10.69-16.374,16.707c-4.267,6.001-7.386,12.171-9.585,18.03
							c-2.222,5.862-3.387,11.447-4.047,16.368c-0.718,4.931-0.612,9.24-0.491,12.736c0.273,3.491,0.582,6.201,0.981,8.005
							c0.162,0.897,0.287,1.585,0.374,2.067c0.081,0.467,0.11,0.709,0.11,0.709s-0.064-0.234-0.162-0.697
							c-0.099-0.48-0.241-1.166-0.426-2.06c-0.433-1.801-0.775-4.512-1.08-8.012c-0.152-3.504-0.288-7.83,0.405-12.785
							c0.635-4.945,1.78-10.562,3.99-16.46c2.187-5.895,5.303-12.106,9.578-18.152c4.244-6.06,9.763-11.868,16.44-16.841
							c13.221-10.152,31.503-16.247,50.726-16.016c19.174,0.237,37.479,5.697,51.072,15.391c6.779,4.902,11.821,11.218,15.65,17.524
							c3.811,6.352,6.376,12.819,8.039,18.881c1.657,6.076,2.394,11.738,2.883,16.7c0.476,4.968,0.679,9.261,0.845,12.767
							c0.148,3.495,0.264,6.213,0.343,8.077c0.037,0.911,0.066,1.611,0.086,2.1C275.979,396.623,275.974,396.866,275.974,396.866z"
							/>
					</g>
				</g>
			</g>
			<g>
				<g>
					<g>
						<path style="fill:#263238;" d="M279.004,398.11c0,0-0.017-0.202-0.034-0.599c-0.015-0.407-0.036-0.997-0.064-1.773
							c-0.049-1.574-0.121-3.893-0.215-6.913c-0.173-6.064-0.425-14.938-0.746-26.222c-0.309-11.294-0.684-24.997-1.114-40.703
							c-0.106-3.927-0.216-7.979-0.328-12.151c-0.138-2.081,0.08-4.21,0.274-6.354c0.151-1.066,0.303-2.138,0.457-3.218
							c0.219-1.068,0.439-2.144,0.661-3.226c1.009-4.301,2.477-8.614,4.45-12.811c1.982-4.191,4.329-8.334,7.326-12.171l0.02-0.026
							l0.033-0.021c15.266-9.617,31.867-20.075,49.43-31.139c4.391-2.765,8.843-5.568,13.348-8.405
							c4.422-2.998,9.197-5.562,14.129-7.889c4.939-2.32,10.073-4.354,15.344-6.128c2.626-0.92,5.317-1.676,8.006-2.477
							c2.72-0.685,5.431-1.46,8.206-2.015c10.644-2.363,21.357-3.535,31.857-4.021c10.506-0.491,20.815-0.462,30.841,0.102
							l0.294,0.017l-0.065,0.29c-4.732,21.164-9.194,41.122-13.283,59.414l-0.008,0.036l-0.022,0.036
							c-2.493,4.097-4.476,8.411-5.957,12.762c-1.421,4.361-2.336,8.843-2.017,13.207c0.339,4.39,0.46,8.686,0.573,12.852
							c0.082,4.169,0.161,8.218,0.238,12.143c0.23,15.698,0.29,29.393,0.334,40.676c0.012,11.276,0.021,20.144,0.027,26.203
							c-0.011,3.018-0.019,5.335-0.025,6.908c-0.007,0.775-0.013,1.365-0.017,1.772c-0.006,0.397-0.018,0.599-0.018,0.599
							s-0.012-0.202-0.018-0.599c-0.004-0.407-0.011-0.997-0.019-1.772c-0.01-1.573-0.025-3.89-0.044-6.908
							c-0.035-6.059-0.087-14.926-0.153-26.202c-0.083-11.282-0.178-24.977-0.44-40.672c-0.084-3.923-0.171-7.971-0.26-12.138
							c-0.12-4.168-0.247-8.447-0.593-12.831c-0.331-4.445,0.592-8.976,2.018-13.375c1.491-4.393,3.471-8.719,5.989-12.869
							l-0.03,0.072c4.074-18.296,8.52-38.257,13.233-59.425l0.229,0.307c-9.995-0.558-20.299-0.583-30.782-0.09
							c-10.482,0.489-21.162,1.659-31.77,4.014c-2.765,0.553-5.467,1.326-8.179,2.008c-2.68,0.798-5.362,1.551-7.979,2.467
							c-5.254,1.768-10.37,3.793-15.29,6.103c-4.915,2.317-9.666,4.866-14.064,7.845c-4.508,2.836-8.961,5.637-13.355,8.401
							c-17.576,11.051-34.19,21.498-49.466,31.103l0.054-0.047c-2.956,3.775-5.31,7.909-7.28,12.065
							c-1.966,4.168-3.431,8.451-4.439,12.721c-2.25,8.569-1.116,17.025-1.097,24.855c0.389,15.704,0.728,29.406,1.008,40.699
							c0.267,11.284,0.477,20.158,0.621,26.222c0.064,3.021,0.113,5.34,0.146,6.914c0.013,0.776,0.022,1.367,0.029,1.774
							C279.011,397.908,279.004,398.11,279.004,398.11z"/>
					</g>
				</g>
			</g>
			<g>
				<g>
					<g>
						<path style="fill:#263238;" d="M460.548,211.64c0,0,0.158-0.019,0.467-0.032c0.33-0.011,0.785-0.026,1.375-0.045
							c1.232-0.03,3.015-0.073,5.309-0.129c4.642-0.092,11.347-0.224,19.69-0.389c16.735-0.285,40.034-0.683,66.385-1.132
							l0.125-0.002l0.079,0.097c2.98,3.649,6.115,7.487,9.301,11.388c9.422,11.553,18.398,22.557,26.563,32.569
							c1.02,1.252,2.027,2.488,3.021,3.708c0.983,1.243,1.817,2.593,2.484,3.985c1.31,2.802,1.976,5.801,1.986,8.702
							c0.03,2.905-0.573,5.697-1.61,8.179c-1.052,2.449-2.062,4.801-3.027,7.045c-3.869,8.952-7.002,16.203-9.177,21.235
							c-1.087,2.488-1.935,4.426-2.519,5.763c-0.287,0.642-0.509,1.139-0.667,1.494c-0.153,0.335-0.244,0.502-0.244,0.502
							s0.058-0.181,0.195-0.523c0.147-0.359,0.353-0.863,0.62-1.514c0.564-1.346,1.381-3.297,2.43-5.801
							c2.139-5.048,5.221-12.321,9.025-21.3c1.723-4.521,4.75-9.277,4.543-15.075c-0.02-2.841-0.68-5.773-1.968-8.51
							c-0.66-1.365-1.469-2.668-2.439-3.891c-0.996-1.218-2.006-2.451-3.028-3.701c-8.174-10.002-17.159-20.996-26.591-32.538
							c-3.184-3.902-6.317-7.741-9.296-11.39l0.204,0.095c-26.351,0.381-49.652,0.718-66.387,0.96
							c-8.344,0.098-15.05,0.177-19.692,0.232c-2.295,0.017-4.078,0.029-5.31,0.038c-0.591-0.001-1.046-0.002-1.376-0.002
							C460.706,211.654,460.548,211.64,460.548,211.64z"/>
					</g>
				</g>
			</g>
			<g>
				<g>
					<g>
						<path style="fill:#263238;" d="M427.036,299.916c-0.001-0.029,0.28-0.025,0.795-0.117c0.512-0.088,1.275-0.294,2.103-0.837
							c0.816-0.536,1.697-1.456,2.139-2.784c0.229-0.663,0.305-1.395,0.273-2.201c-0.018-0.784-0.216-1.609-0.62-2.378
							c-0.797-1.526-2.544-2.807-4.605-2.805c-2.114,0.006-4.369,0.013-6.74,0.02c-4.755,0.006-9.973,0.013-15.453,0.021
							c-1.309,0-2.585,0.509-3.521,1.371c-0.941,0.857-1.54,2.047-1.672,3.273c-0.125,1.257,0.041,2.489,0.64,3.53
							c0.576,1.042,1.516,1.83,2.558,2.272c1.053,0.469,2.189,0.401,3.326,0.406c1.125,0.004,2.217,0.009,3.274,0.013
							c2.108,0.011,4.075,0.022,5.876,0.032c3.553,0.034,6.446,0.063,8.508,0.083c0.966,0.02,1.736,0.037,2.313,0.049
							C426.758,299.88,427.036,299.898,427.036,299.916c0,0.018-0.278,0.036-0.807,0.053c-0.577,0.012-1.347,0.028-2.313,0.049
							c-2.062,0.02-4.956,0.048-8.508,0.083c-1.801,0.01-3.768,0.02-5.876,0.032c-1.057,0.004-2.149,0.009-3.274,0.013
							c-0.569-0.007-1.118,0.024-1.728-0.014c-0.6-0.044-1.207-0.168-1.781-0.406c-1.141-0.476-2.171-1.332-2.808-2.471
							c-0.662-1.125-0.848-2.523-0.714-3.831c0.141-1.347,0.796-2.657,1.829-3.6c1.025-0.949,2.432-1.511,3.87-1.51
							c5.479,0.007,10.697,0.014,15.453,0.021c2.374,0.01,4.631,0.02,6.747,0.028c2.23,0.019,4.096,1.422,4.925,3.066
							c0.421,0.828,0.619,1.712,0.625,2.544c0.021,0.81-0.074,1.617-0.329,2.301c-0.493,1.392-1.441,2.329-2.304,2.859
							c-0.876,0.536-1.67,0.713-2.197,0.77C427.316,299.962,427.036,299.916,427.036,299.916z"/>
					</g>
				</g>
			</g>
			<g>
				<g>
					<g>
						<path style="fill:#263238;" d="M574.966,299.916c-0.001-0.029,0.28-0.025,0.795-0.117c0.512-0.088,1.275-0.294,2.102-0.837
							c0.816-0.536,1.697-1.456,2.139-2.784c0.229-0.663,0.305-1.395,0.273-2.201c-0.018-0.784-0.216-1.609-0.62-2.378
							c-0.797-1.526-2.544-2.807-4.605-2.805c-2.114,0.006-4.369,0.013-6.74,0.02c-4.755,0.006-9.973,0.013-15.453,0.021
							c-1.31,0-2.585,0.509-3.521,1.371c-0.941,0.857-1.54,2.047-1.672,3.273c-0.125,1.257,0.041,2.489,0.64,3.53
							c0.576,1.042,1.516,1.83,2.558,2.272c1.053,0.469,2.189,0.401,3.326,0.406c1.125,0.004,2.217,0.009,3.274,0.013
							c2.108,0.011,4.075,0.022,5.876,0.032c3.553,0.034,6.446,0.063,8.508,0.083c0.966,0.02,1.736,0.037,2.313,0.049
							C574.689,299.88,574.966,299.898,574.966,299.916c0,0.018-0.278,0.036-0.807,0.053c-0.577,0.012-1.347,0.028-2.313,0.049
							c-2.062,0.02-4.956,0.048-8.508,0.083c-1.801,0.01-3.768,0.02-5.876,0.032c-1.057,0.004-2.149,0.009-3.274,0.013
							c-0.569-0.007-1.118,0.024-1.728-0.014c-0.6-0.044-1.207-0.168-1.781-0.406c-1.141-0.476-2.171-1.332-2.808-2.471
							c-0.662-1.125-0.848-2.523-0.714-3.831c0.141-1.347,0.796-2.657,1.829-3.6c1.025-0.949,2.432-1.511,3.871-1.51
							c5.479,0.007,10.697,0.014,15.453,0.021c2.374,0.01,4.631,0.02,6.747,0.028c2.23,0.019,4.096,1.422,4.925,3.066
							c0.421,0.828,0.619,1.712,0.625,2.544c0.021,0.81-0.073,1.617-0.329,2.301c-0.493,1.392-1.441,2.329-2.304,2.859
							c-0.876,0.536-1.67,0.713-2.197,0.77C575.246,299.962,574.966,299.916,574.966,299.916z"/>
					</g>
				</g>
			</g>
			<g>
				<g>
					<path style="fill:#FAFAFA;" d="M704.693,275.776h-29.6c-4.057,0-7.78,2.248-9.668,5.839v0
						c-1.549,2.946-1.671,6.439-0.329,9.486l11.609,26.367l29.638-0.292C706.342,317.176,712.646,283.753,704.693,275.776z"/>
				</g>
			</g>
			<g>
				<g>
					<path style="fill:#263238;" d="M293.596,272.046l152.733-2.814l99.401-1.823l32.778-18.924
						c2.654-1.532,3.362-5.046,1.509-7.487l-20.405-26.81c-2.128-2.796-5.43-4.449-8.944-4.478l-111.176-0.904
						c0,0-41.867-2.433-74.848,16.035C329.93,244.282,293.596,272.046,293.596,272.046z"/>
				</g>
			</g>
			<g>
				<g>
					<path style="fill:#455A64;" d="M363.595,211.576c0,0,7.655,3.492,2.673,6.726c-4.983,3.235-82.362,52.019-82.362,52.019
						l-17.788-8.05C297.626,244.716,329.453,227.667,363.595,211.576z"/>
				</g>
			</g>
			<g>
				<g>
					<g>
						<path style="fill:#263238;" d="M286.406,271.54c0,0-0.16,0.05-0.476,0.122c-0.339,0.074-0.806,0.175-1.409,0.306
							c-1.264,0.262-3.089,0.639-5.428,1.123c-4.721,0.939-11.561,2.258-20.044,3.715c-16.962,2.919-40.52,6.322-66.693,8.585
							c-6.544,0.569-12.941,1.036-19.121,1.442c-6.179,0.405-12.138,0.781-17.8,1.299c-11.323,0.987-21.468,2.636-29.707,5.088
							c-8.264,2.372-14.577,5.413-18.73,7.813c-2.129,1.122-3.644,2.22-4.722,2.884c-0.52,0.33-0.924,0.586-1.217,0.772
							c-0.276,0.172-0.425,0.249-0.425,0.249s0.128-0.106,0.394-0.292c0.286-0.196,0.681-0.467,1.189-0.816
							c1.06-0.693,2.561-1.82,4.679-2.973c4.132-2.46,10.446-5.565,18.727-7.991c8.256-2.507,18.43-4.199,29.767-5.213
							c5.669-0.532,11.632-0.919,17.81-1.331c6.177-0.413,12.569-0.883,19.109-1.452c26.156-2.262,49.707-5.604,66.677-8.43
							c8.487-1.41,15.335-2.673,20.066-3.551c2.346-0.443,4.177-0.788,5.445-1.027c0.606-0.109,1.078-0.194,1.419-0.256
							C286.239,271.555,286.406,271.54,286.406,271.54z"/>
					</g>
				</g>
			</g>
			<g>
				<g>
					<g>
						<path style="fill:#263238;" d="M716.52,339.934c0,0.144-10.18,0.26-22.734,0.26c-12.559,0-22.737-0.117-22.737-0.26
							s10.178-0.26,22.737-0.26C706.34,339.674,716.52,339.79,716.52,339.934z"/>
					</g>
				</g>
			</g>
			<g>
				<g>
					<g>
						<path style="fill:#263238;" d="M530.292,365.913c0,0.144-57.463,0.26-128.331,0.26c-70.893,0-128.344-0.116-128.344-0.26
							c0-0.144,57.451-0.26,128.344-0.26C472.829,365.652,530.292,365.769,530.292,365.913z"/>
					</g>
				</g>
			</g>
			<g>
				<g>
					<g>
						<path style="fill:#263238;" d="M127.948,340.794c0,0.144-8.125,0.26-18.146,0.26c-10.024,0-18.147-0.117-18.147-0.26
							s8.123-0.26,18.147-0.26C119.823,340.534,127.948,340.65,127.948,340.794z"/>
					</g>
				</g>
			</g>
			<g>
				<g>
					<path style="fill:#455A64;" d="M656.271,229.206c0,0-6.819,7.635-4.139,13.239c2.68,5.603,30.385,25.214,30.385,25.214
						l20.11,3.773L656.271,229.206z"/>
				</g>
			</g>
			<g>
				<g>
					<polygon style="fill:#455A64;" points="465.072,215.543 460.548,264.376 541.467,262.069 574.083,243.112 552.967,215.543 
											"/>
				</g>
			</g>
			<g>
				<g>
					<path style="fill:#455A64;" d="M312.761,266.876c0,0,48.815-35.256,68.078-42.265c18.588-6.763,28.28-8.458,45.741-8.954
						c16.69-0.475,26.859-0.015,26.859-0.015l-12.901,49.648L312.761,266.876z"/>
				</g>
			</g>
			<g>
				<g>
					<g>
						<path style="fill:#283384;" d="M305.616,267.039L305.616,267.039c0-3.092,1.669-5.943,4.365-7.458l11.214-6.3
							c3.197-1.796,6.803-2.74,10.471-2.74l0,0c2.281,0,4.527,0.365,6.658,1.063c4.793,1.571,7.983,6.122,8.175,11.163l0,0
							c0.267,7.004-5.339,12.827-12.347,12.827h-19.981C309.446,275.593,305.616,271.763,305.616,267.039z"/>
					</g>
				</g>
				<g>
					<g>
						<g>
							<path style="fill:#263238;" d="M305.616,267.039c0.028-0.001,0.033,0.378,0.129,1.083c0.093,0.703,0.347,1.742,0.984,2.929
								c0.657,1.166,1.758,2.472,3.439,3.384c0.841,0.443,1.817,0.775,2.885,0.909c1.059,0.125,2.233,0.054,3.448,0.065
								c4.882-0.016,10.676-0.035,17.106-0.056c1.598,0.009,3.212-0.188,4.762-0.78c1.545-0.576,3.003-1.49,4.229-2.689
								c1.224-1.198,2.231-2.675,2.855-4.334c0.63-1.657,0.879-3.476,0.746-5.289c-0.275-3.637-2.224-7.004-5.047-8.953
								c-1.398-1.005-3.011-1.571-4.635-1.953c-1.621-0.385-3.252-0.57-4.844-0.574c-3.187-0.004-6.199,0.709-8.777,1.881
								c-1.291,0.575-2.47,1.306-3.64,1.938c-1.161,0.645-2.276,1.265-3.34,1.857c-2.125,1.178-4.051,2.244-5.748,3.185
								c-1.688,0.908-2.789,2.216-3.435,3.387c-0.651,1.182-0.888,2.225-0.994,2.926
								C305.637,266.661,305.646,267.039,305.616,267.039c0,0-0.051-0.378,0.019-1.097c0.075-0.713,0.282-1.783,0.92-3.008
								c0.631-1.213,1.746-2.585,3.47-3.545c1.686-0.96,3.599-2.05,5.711-3.252c1.06-0.601,2.169-1.231,3.324-1.887
								c1.162-0.64,2.335-1.38,3.658-1.981c2.623-1.213,5.697-1.959,8.956-1.968c1.628-0.002,3.298,0.181,4.958,0.57
								c1.649,0.381,3.35,0.971,4.813,2.018c2.955,2.033,4.987,5.541,5.274,9.33c0.139,1.889-0.122,3.788-0.781,5.516
								c-0.653,1.73-1.705,3.268-2.982,4.514c-1.28,1.247-2.801,2.195-4.412,2.79c-1.607,0.611-3.319,0.811-4.936,0.793
								c-6.43-0.021-12.224-0.04-17.106-0.056c-1.218-0.023-2.372,0.039-3.491-0.105c-1.108-0.152-2.116-0.51-2.98-0.981
								c-1.726-0.969-2.834-2.336-3.478-3.544c-0.625-1.231-0.849-2.296-0.91-3.012
								C305.578,267.417,305.616,267.039,305.616,267.039z"/>
						</g>
					</g>
				</g>
			</g>
			<g>
				<g>
					<g>
						<path style="fill:#FFFFFF;" d="M681.735,397.322c0,0,0.001-0.236,0.029-0.694c0.032-0.475,0.077-1.15,0.136-2.031
							c0.055-0.893,0.161-1.995,0.22-3.3c0.045-1.309,0.096-2.816,0.154-4.511c0.016-1.697-0.009-3.585-0.029-5.65
							c-0.133-2.061-0.144-4.309-0.423-6.704c-0.432-4.796-1.233-10.252-2.893-16.086c-0.865-2.903-1.836-5.933-3.185-8.954
							c-1.279-3.049-2.907-6.093-4.828-9.087c-3.808-6.02-9.201-11.563-15.633-16.317c-6.451-4.743-14.083-8.546-22.425-11.055
							c-8.342-2.557-17.418-3.487-26.657-3.551c-9.248-0.023-18.293,1.234-26.604,3.87c-4.155,1.312-8.12,2.964-11.842,4.888
							c-3.715,1.936-7.118,4.26-10.278,6.717c-6.295,4.958-11.599,10.518-15.837,16.242c-2.086,2.884-3.781,5.884-5.264,8.84
							c-1.397,2.997-2.666,5.914-3.641,8.786c-4.049,11.457-5.319,21.309-5.771,28.06c-0.16,3.39-0.142,6.028-0.057,7.813
							c0.051,0.88,0.09,1.556,0.117,2.03c0.023,0.458,0.022,0.694,0.022,0.694s-0.034-0.232-0.075-0.689
							c-0.039-0.474-0.095-1.15-0.169-2.029c-0.119-1.786-0.17-4.429-0.04-7.829c0.391-6.771,1.608-16.656,5.626-28.171
							c0.968-2.887,2.232-5.822,3.626-8.839c1.481-2.977,3.179-6.004,5.277-8.92c4.249-5.769,9.566-11.366,15.89-16.364
							c3.175-2.477,6.597-4.821,10.344-6.78c3.748-1.943,7.737-3.61,11.919-4.934c8.364-2.661,17.466-3.928,26.758-3.904
							c9.276,0.064,18.401,1.001,26.803,3.583c8.396,2.532,16.074,6.37,22.562,11.156c3.247,2.389,6.203,4.999,8.844,7.757
							c2.643,2.754,4.966,5.675,6.869,8.714c1.927,3.021,3.557,6.091,4.833,9.162c1.348,3.043,2.314,6.093,3.171,9.013
							c1.646,5.868,2.423,11.348,2.829,16.16c0.267,2.404,0.263,4.658,0.381,6.724c0.005,2.07,0.015,3.961-0.017,5.661
							c-0.076,1.696-0.144,3.205-0.202,4.515c-0.075,1.306-0.199,2.408-0.27,3.3c-0.082,0.879-0.144,1.553-0.188,2.027
							C681.772,397.09,681.735,397.322,681.735,397.322z"/>
					</g>
				</g>
			</g>
			<g>
				<g>
					<g>
						<path style="fill:none;stroke:#4E585D;stroke-width:0.05;stroke-miterlimit:10;" d="M222.372,308.648"/>
					</g>
				</g>
			</g>
			<g>
				<g>
					<g>
						<path style="fill:#FFFFFF;" d="M438.403,272.046c0,0.009-0.078,0.018-0.231,0.027c-0.184,0.008-0.407,0.017-0.678,0.028
							c-0.641,0.014-1.511,0.033-2.608,0.058c-2.313,0.042-5.577,0.1-9.592,0.172c-8.099,0.152-19.285,0.45-31.64,0.786
							c-12.36,0.336-23.552,0.576-31.655,0.634c-4.051,0.031-7.33,0.034-9.595,0.007c-1.098-0.017-1.968-0.03-2.609-0.04
							c-0.272-0.009-0.494-0.017-0.678-0.023c-0.153-0.008-0.231-0.017-0.231-0.026c0-0.009,0.078-0.018,0.231-0.027
							c0.184-0.008,0.407-0.017,0.678-0.028c0.641-0.014,1.511-0.033,2.608-0.058c2.313-0.041,5.577-0.1,9.591-0.172
							c8.099-0.152,19.286-0.45,31.646-0.786c12.356-0.336,23.547-0.576,31.649-0.633c4.051-0.031,7.33-0.034,9.596-0.007
							c1.098,0.017,1.968,0.03,2.609,0.04c0.272,0.009,0.494,0.017,0.678,0.024C438.324,272.028,438.403,272.037,438.403,272.046z"
							/>
					</g>
				</g>
			</g>
			<g>
				<g>
					<g>
						<path style="fill:#FFFFFF;" d="M425.143,287.084c0,0.144-3.923,0.26-8.76,0.26c-4.839,0-8.761-0.116-8.761-0.26
							c0-0.144,3.922-0.26,8.761-0.26C421.22,286.823,425.143,286.94,425.143,287.084z"/>
					</g>
				</g>
			</g>
			<g>
				<g>
					<g>
						<path style="fill:#FFFFFF;" d="M428.358,233.569c0.054,0.133-10.822,4.661-24.289,10.112
							c-13.472,5.453-24.433,9.764-24.487,9.63s10.82-4.66,24.292-10.113C417.341,237.748,428.305,233.436,428.358,233.569z"/>
					</g>
				</g>
			</g>
			<g>
				<g>
					<g>
						<path style="fill:#FFFFFF;" d="M406.321,236.984c0.057,0.132-10.299,4.694-23.127,10.188
							c-12.833,5.496-23.278,9.842-23.335,9.71c-0.056-0.132,10.297-4.693,23.13-10.188
							C395.817,241.2,406.264,236.852,406.321,236.984z"/>
					</g>
				</g>
			</g>
			<g>
				<g>
					<g>
						<path style="fill:#FFFFFF;" d="M546.081,231.678c0.054,0.133-10.822,4.661-24.289,10.112
							c-13.472,5.453-24.433,9.764-24.487,9.631c-0.054-0.133,10.82-4.66,24.292-10.113
							C535.064,235.857,546.027,231.545,546.081,231.678z"/>
					</g>
				</g>
			</g>
			<g>
				<g>
					<g>
						<path style="fill:#FFFFFF;" d="M524.044,235.093c0.057,0.132-10.299,4.694-23.127,10.188
							c-12.832,5.496-23.278,9.842-23.335,9.71c-0.057-0.132,10.297-4.693,23.13-10.189
							C513.54,239.308,523.987,234.961,524.044,235.093z"/>
					</g>
				</g>
			</g>
			<g>
				<g>
					<g>
						<path style="fill:#FFFFFF;" d="M548.207,272.038c0.001,0.144-21.629,0.389-48.305,0.548
							c-26.686,0.159-48.312,0.171-48.313,0.027c-0.001-0.144,21.624-0.389,48.31-0.548
							C526.575,271.907,548.206,271.894,548.207,272.038z"/>
					</g>
				</g>
			</g>
			<g>
				<g>
					<g>
						<path style="fill:#FFFFFF;" d="M572.16,286.247c0.001,0.144-6.065,0.317-13.547,0.387c-7.485,0.07-13.552,0.01-13.553-0.134
							c-0.001-0.144,6.063-0.317,13.548-0.387C566.09,286.043,572.159,286.103,572.16,286.247z"/>
					</g>
				</g>
			</g>
			<g>
				<g>
					<g>
						<path style="fill:#FFFFFF;" d="M158.01,278.854c0.001,0.018-0.201,0.056-0.589,0.113c-0.444,0.058-1.005,0.132-1.695,0.222
							c-0.737,0.084-1.638,0.196-2.677,0.367c-1.04,0.166-2.231,0.315-3.53,0.578c-2.612,0.453-5.695,1.139-9.079,2.04
							c-3.375,0.937-7.046,2.11-10.814,3.573c-3.76,1.489-7.25,3.125-10.362,4.732c-3.095,1.64-5.822,3.233-8.046,4.677
							c-1.132,0.691-2.107,1.39-2.982,1.976c-0.879,0.581-1.615,1.111-2.213,1.551c-0.568,0.403-1.029,0.73-1.394,0.989
							c-0.322,0.222-0.497,0.332-0.508,0.317c-0.011-0.014,0.142-0.152,0.444-0.4c0.35-0.28,0.792-0.634,1.337-1.069
							c0.58-0.465,1.301-1.021,2.167-1.626c0.862-0.61,1.826-1.333,2.949-2.046c2.206-1.488,4.925-3.121,8.023-4.793
							c3.115-1.639,6.617-3.296,10.396-4.793c3.787-1.471,7.482-2.636,10.88-3.552c3.407-0.88,6.512-1.531,9.141-1.939
							c1.309-0.24,2.507-0.365,3.554-0.504c1.047-0.145,1.953-0.227,2.695-0.281c0.695-0.051,1.261-0.092,1.707-0.125
							C157.803,278.839,158.009,278.836,158.01,278.854z"/>
					</g>
				</g>
			</g>
			<g>
				<g>
					<g>
						<path style="fill:#FFFFFF;" d="M336.583,255.261c-0.039,0.029-0.296-0.391-0.963-0.931c-0.66-0.534-1.788-1.143-3.304-1.335
							c-1.517-0.202-3.353,0.057-5.331,0.577c-1.986,0.496-4.129,1.202-6.296,2.142c-4.348,1.87-7.889,4.36-10.243,6.368
							c-2.377,1.998-3.634,3.47-3.708,3.4c-0.027-0.024,0.274-0.401,0.844-1.064c0.583-0.651,1.454-1.572,2.622-2.614
							c2.313-2.098,5.871-4.672,10.277-6.568c2.195-0.952,4.373-1.654,6.39-2.13c2.003-0.499,3.915-0.735,5.496-0.475
							c1.585,0.249,2.74,0.942,3.385,1.545c0.327,0.301,0.538,0.576,0.668,0.768C336.545,255.141,336.597,255.252,336.583,255.261z"
							/>
					</g>
				</g>
			</g>
		</g>
		<g>
			<g>
				<g>
					<path style="fill:#263238;" d="M658.537,228.852c0,0-1.484,0.446-4.257,0.435c-1.382-0.034-3.074-0.195-4.993-0.618
						c-1.92-0.416-4.059-1.085-6.364-1.964c-2.309-0.872-4.774-1.976-7.432-3.112c-1.34-0.541-2.725-1.1-4.151-1.675
						c-1.429-0.569-2.937-1.06-4.462-1.616c-6.143-2.112-13.044-4.004-20.381-5.555c-14.69-3.085-28.268-4.361-38.088-4.742
						c-2.456-0.133-4.681-0.135-6.634-0.19c-1.943,0-3.623,0-5.012,0c-1.345,0.03-2.404,0.053-3.167,0.07
						c-0.338,0.002-0.609,0.004-0.825,0.005c-0.186-0.002-0.281-0.007-0.282-0.016s0.094-0.021,0.279-0.037
						c0.215-0.015,0.486-0.034,0.823-0.057c0.763-0.041,1.822-0.097,3.167-0.168c1.39-0.025,3.072-0.054,5.018-0.089
						c1.956,0.027,4.185,0.003,6.646,0.113c9.841,0.287,23.454,1.508,38.182,4.6c7.356,1.555,14.275,3.467,20.431,5.611
						c1.529,0.564,3.039,1.064,4.47,1.643c1.428,0.586,2.815,1.155,4.157,1.706c2.656,1.155,5.105,2.276,7.393,3.165
						c2.285,0.897,4.399,1.584,6.295,2.023c1.896,0.445,3.566,0.635,4.934,0.699c1.369,0.036,2.435-0.032,3.152-0.117
						c0.335-0.04,0.604-0.073,0.817-0.099C658.44,228.849,658.535,228.843,658.537,228.852z"/>
				</g>
			</g>
		</g>
	</g>
</g>
<g id="Character">
	<g>
		<g>
			<g>
				<path style="fill:#283384;" d="M177.409,230.227c-3.995-21.881-6.685-25.241-8.946-32.769
					c-2.235-7.438-5.85-12.422-10.325-14.143c-3.018-1.161-18.065-6.591-23.308-4.79c-5.834,2.004-10.922,4.908-14.528,7.297
					c-3.512,2.327-6.168,5.727-7.584,9.695l-8.053,22.569l14.085,14.046l7.059-15.003l7.661,17.956l-1.135,18.152l43.939,11.821
					C180.277,258.66,179.675,242.643,177.409,230.227z"/>
			</g>
			<g>
				<g style="opacity:0.2;">
					<g>
						<path d="M165.967,206.362c-1.939,11.389-2.25,12.962-4.189,24.352c-0.666,3.909-2.613,10.008-5.397,12.833
							c-2.063,2.093-4.085,4.109-6.945,4.786c-2.665,0.631-6.71,0.701-9.216-0.405c-2.506-1.106-4.639-5.968-3.608-8.506
							c3.725,0.797,4.875,2.043,8.09,0c2.803-1.781,6.777-5.721,8.302-8.671C159.414,218.347,161.176,217.906,165.967,206.362"/>
					</g>
				</g>
			</g>
			<g>
				<g>
					<path style="fill:#263238;" d="M134.173,228.428c-0.065,0.036-0.788-1.131-1.94-3.026c-1.232-2.009-2.797-4.561-4.528-7.382
						c-1.773-2.796-3.376-5.324-4.639-7.314c-1.195-1.868-1.925-3.031-1.864-3.073c0.03-0.02,0.252,0.243,0.628,0.737
						c0.377,0.494,0.904,1.221,1.542,2.13c1.275,1.817,2.98,4.368,4.775,7.244c1.792,2.875,3.333,5.528,4.404,7.473
						c0.536,0.972,0.957,1.766,1.235,2.322C134.065,228.095,134.204,228.41,134.173,228.428z"/>
				</g>
			</g>
			<g>
				<g>
					<path style="fill:#263238;" d="M164.828,248.859c0.011,0.034-0.356,0.171-1.032,0.389c-0.337,0.114-0.752,0.24-1.246,0.346
						c-0.492,0.111-1.048,0.264-1.678,0.351c-1.251,0.231-2.763,0.374-4.446,0.403c-1.683,0.001-3.536-0.128-5.451-0.467
						c-1.912-0.359-3.692-0.893-5.266-1.488c-1.565-0.622-2.93-1.289-4.018-1.947c-0.559-0.303-1.025-0.643-1.446-0.921
						c-0.424-0.274-0.768-0.538-1.043-0.764c-0.555-0.443-0.85-0.7-0.828-0.728c0.06-0.08,1.294,0.888,3.498,2.092
						c1.097,0.609,2.458,1.231,4.007,1.819c1.559,0.561,3.31,1.071,5.19,1.424c1.882,0.333,3.701,0.474,5.357,0.5
						c1.656-0.003,3.149-0.105,4.391-0.287C163.303,249.233,164.8,248.763,164.828,248.859z"/>
				</g>
			</g>
			<g>
				<g>
					<g>
						<path style="fill:#B78876;" d="M147.2,214.769c-0.076,0.392-4.803,9.791-4.803,9.791l-22.277-11.737l-2.275-9.602
							c-0.355-1.498-1.277-2.801-2.572-3.637c-1.374-0.887-3.052-1.172-4.641-0.789l-6.57,2.69
							c-0.545,0.223-0.972,0.692-1.081,1.271c-0.091,0.486,0.028,0.956,0.867,0.891c1.632-0.127,5.031-0.488,5.031-0.488
							l-1.551,5.468c-0.407,1.434-0.249,2.969,0.44,4.291l0.988,1.893l2.171,3.511l-0.044,0.032c0,0,21.656,22.246,33.816,23.693
							c7.306,0.87,15.588-19.619,15.588-19.619L147.2,214.769z"/>
					</g>
					<g>
						<g>
							<g>
								<g>
									<g>
										<g>
											<path style="fill:#AA6550;" d="M108.692,203.528c-0.024-0.034,0.168-0.232,0.541-0.479
												c0.367-0.237,0.957-0.549,1.686-0.52c0.747,0.043,1.301,0.529,1.494,0.959c0.202,0.448,0.066,0.754,0.037,0.737
												c-0.056-0.003-0.021-0.286-0.239-0.627c-0.207-0.333-0.7-0.711-1.308-0.743c-0.621-0.027-1.174,0.215-1.557,0.396
												C108.96,203.436,108.719,203.567,108.692,203.528z"/>
										</g>
									</g>
								</g>
							</g>
							<g>
								<g>
									<g>
										<g>
											<path style="fill:#AA6550;" d="M111.496,206.939c-0.047,0.017-0.143-0.182-0.358-0.445
												c-0.211-0.263-0.561-0.586-1.031-0.772c-0.47-0.186-0.947-0.189-1.28-0.141c-0.337,0.046-0.543,0.124-0.566,0.08
												c-0.02-0.034,0.156-0.193,0.516-0.305c0.353-0.113,0.903-0.152,1.45,0.063c0.547,0.217,0.921,0.621,1.101,0.945
												C111.514,206.691,111.535,206.927,111.496,206.939z"/>
										</g>
									</g>
								</g>
							</g>
						</g>
					</g>
				</g>
				<g>
					<path style="fill:#283384;" d="M151.821,185.098l-6.033,28.592l15.99,9.609l6.143-17.57
						C167.921,205.728,165.379,184.394,151.821,185.098z"/>
				</g>
				<g>
					<g>
						<path style="fill:#EBEBEB;" d="M160.441,185.601c0.008,0.016-0.133,0.104-0.408,0.256c-0.276,0.151-0.683,0.372-1.215,0.641
							c-1.062,0.543-2.614,1.301-4.565,2.169c-3.893,1.722-9.437,3.916-15.897,5.01c-6.462,1.098-12.495,0.586-16.62-0.562
							c-2.07-0.558-3.689-1.194-4.768-1.711c-0.548-0.239-0.948-0.48-1.227-0.624c-0.276-0.152-0.416-0.239-0.408-0.255
							c0.02-0.04,0.618,0.241,1.716,0.693c1.096,0.456,2.719,1.034,4.777,1.54c4.102,1.043,10.052,1.49,16.443,0.405
							c6.392-1.082,11.919-3.204,15.837-4.835c1.963-0.822,3.535-1.527,4.623-2.013
							C159.819,185.829,160.425,185.568,160.441,185.601z"/>
					</g>
				</g>
				<g>
					<g>
						<path style="fill:#EBEBEB;" d="M164.648,188.758c0.01,0.015-0.143,0.127-0.443,0.326c-0.353,0.226-0.792,0.507-1.328,0.849
							c-0.575,0.373-1.29,0.809-2.156,1.254c-0.861,0.453-1.82,1.013-2.946,1.5c-0.559,0.257-1.142,0.525-1.748,0.803
							c-0.61,0.275-1.268,0.506-1.936,0.775c-1.331,0.558-2.806,1.007-4.348,1.509c-3.112,0.91-6.601,1.692-10.318,2.15
							c-3.723,0.422-7.299,0.476-10.538,0.317c-1.617-0.129-3.156-0.221-4.581-0.453c-0.713-0.105-1.406-0.176-2.064-0.301
							c-0.655-0.129-1.284-0.254-1.888-0.373c-1.208-0.21-2.272-0.532-3.214-0.771c-0.946-0.23-1.743-0.488-2.389-0.716
							c-0.601-0.208-1.093-0.379-1.489-0.516c-0.338-0.123-0.513-0.196-0.507-0.213s0.192,0.023,0.54,0.114
							c0.403,0.112,0.903,0.251,1.515,0.422c0.653,0.197,1.455,0.425,2.403,0.628c0.945,0.211,2.008,0.506,3.213,0.692
							c0.601,0.108,1.229,0.221,1.881,0.338c0.655,0.114,1.345,0.174,2.054,0.27c1.417,0.212,2.946,0.287,4.551,0.402
							c3.215,0.131,6.759,0.063,10.451-0.355c3.686-0.455,7.148-1.216,10.243-2.093c1.533-0.486,3.002-0.916,4.331-1.452
							c0.667-0.258,1.324-0.478,1.934-0.742c0.607-0.266,1.191-0.522,1.751-0.767c1.129-0.462,2.094-0.996,2.963-1.422
							c0.874-0.418,1.601-0.827,2.19-1.171c0.555-0.308,1.009-0.561,1.375-0.764C164.467,188.825,164.638,188.743,164.648,188.758z"
							/>
					</g>
				</g>
				<g>
					<g>
						<path style="fill:#263238;" d="M161.778,223.298c-0.015,0.026-0.471-0.208-1.298-0.66c-0.886-0.497-2.069-1.16-3.522-1.975
							c-3.049-1.757-7.222-4.162-12.026-6.93l-0.155-0.089l0.035-0.173c0.429-2.135,0.889-4.426,1.365-6.792
							c0.727-3.556,1.419-6.94,2.051-10.031c0.334-1.538,0.598-3.007,0.903-4.384c0.317-1.372,0.721-2.641,1.283-3.716
							c1.102-2.19,2.862-3.376,4.134-3.786c0.646-0.208,1.175-0.26,1.529-0.252c0.354,0.007,0.537,0.044,0.536,0.058
							c0.006,0.066-0.762-0.073-1.997,0.385c-1.207,0.454-2.857,1.636-3.874,3.761c-0.522,1.048-0.896,2.288-1.19,3.644
							c-0.268,1.375-0.553,2.839-0.852,4.377c-0.62,3.094-1.298,6.48-2.011,10.039c-0.482,2.365-0.948,4.654-1.383,6.789
							l-0.12-0.262c4.767,2.832,8.907,5.291,11.933,7.089c1.422,0.867,2.58,1.574,3.447,2.102
							C161.366,222.989,161.793,223.273,161.778,223.298z"/>
					</g>
				</g>
			</g>
			<g>
				<g>
					<path style="fill:#263238;" d="M166.674,204.883c0.065,0.004,0.077,1.025-0.08,2.665c-0.155,1.64-0.508,3.898-1.147,6.333
						c-0.643,2.436-1.447,4.575-2.119,6.079c-0.672,1.505-1.184,2.388-1.243,2.359c-0.071-0.034,0.323-0.97,0.902-2.499
						c0.58-1.529,1.32-3.662,1.957-6.071c0.632-2.409,1.038-4.631,1.286-6.247C166.477,205.886,166.595,204.878,166.674,204.883z"/>
				</g>
			</g>
		</g>
		<g>
			<g>
				<g>
					<g>
						<path style="fill:#455A64;" d="M79.917,363.905l-0.177,15.266c0,0-15.577,4.948-15.884,7.766l29.588,1.406l1.251-23.776
							L79.917,363.905z"/>
					</g>
					<g>
						<g>
							<path style="fill:#E0E0E0;" d="M88.951,378.324c0.565,0.184,0.93,0.846,0.77,1.419c-0.16,0.572-0.831,0.949-1.399,0.776
								c-0.568-0.174-1.031-0.956-0.808-1.507c0.223-0.551,1.035-0.951,1.545-0.645"/>
						</g>
					</g>
					<g>
						<path style="fill:#E0E0E0;" d="M93.445,388.343l0.033-2.401l-28.381-0.45c0,0-1.344,0.51-1.24,1.445L93.445,388.343z"/>
					</g>
					<g>
						<g>
							<path style="fill:#263238;" d="M79.268,378.998c-0.002,0.145,0.717,0.245,1.406,0.743c0.702,0.48,1.039,1.123,1.174,1.073
								c0.135-0.022-0.04-0.896-0.885-1.484C80.125,378.733,79.243,378.864,79.268,378.998z"/>
						</g>
					</g>
					<g>
						<g>
							<path style="fill:#263238;" d="M76.104,380.134c-0.04,0.138,0.574,0.414,1.036,1.048c0.48,0.621,0.573,1.287,0.717,1.288
								c0.135,0.029,0.275-0.812-0.314-1.59C76.961,380.098,76.114,379.997,76.104,380.134z"/>
						</g>
					</g>
					<g>
						<g>
							<path style="fill:#263238;" d="M74.165,383.765c0.13,0.037,0.365-0.675,0.032-1.484c-0.328-0.811-0.994-1.156-1.061-1.038
								c-0.087,0.115,0.331,0.56,0.595,1.229C74.01,383.133,74.022,383.744,74.165,383.765z"/>
						</g>
					</g>
					<g>
						<g>
							<path style="fill:#263238;" d="M79.695,375.524c0.054,0.135,0.727-0.033,1.541,0.061c0.816,0.078,1.438,0.382,1.52,0.262
								c0.089-0.1-0.506-0.665-1.467-0.762C80.329,374.979,79.629,375.407,79.695,375.524z"/>
						</g>
					</g>
				</g>
				<g style="opacity:0.3;">
					<polygon points="79.886,366.929 79.851,369.65 94.399,370.208 94.534,367.761 					"/>
				</g>
				<g>
					<g>
						<path style="fill:#263238;" d="M79.787,372.444c-0.004,0.06,0.562,0.176,1.482,0.063c0.458-0.057,1-0.18,1.573-0.403
							c0.286-0.112,0.58-0.248,0.872-0.411c0.141-0.081,0.306-0.162,0.464-0.327c0.167-0.143,0.276-0.522,0.103-0.766
							c-0.141-0.234-0.404-0.345-0.617-0.36c-0.218-0.018-0.396,0.018-0.559,0.05c-0.333,0.064-0.647,0.159-0.936,0.272
							c-0.578,0.23-1.052,0.534-1.409,0.832c-0.717,0.603-0.977,1.132-0.928,1.162c0.063,0.051,0.419-0.386,1.142-0.877
							c0.361-0.245,0.819-0.493,1.357-0.682c0.27-0.093,0.559-0.17,0.863-0.222c0.317-0.067,0.584-0.057,0.658,0.086
							c0.027,0.055,0.029,0.076-0.04,0.164c-0.072,0.081-0.203,0.158-0.341,0.239c-0.27,0.158-0.54,0.294-0.804,0.41
							c-0.528,0.232-1.03,0.383-1.459,0.481C80.348,372.353,79.788,372.366,79.787,372.444z"/>
					</g>
				</g>
				<g>
					<g>
						<path style="fill:#263238;" d="M79.965,372.66c0.05,0.025,0.361-0.479,0.459-1.413c0.047-0.463,0.025-1.028-0.125-1.632
							c-0.077-0.301-0.186-0.611-0.335-0.918c-0.16-0.301-0.352-0.702-0.91-0.793c-0.292-0.025-0.546,0.192-0.639,0.384
							c-0.107,0.195-0.135,0.366-0.178,0.536c-0.071,0.343-0.08,0.682-0.048,0.998c0.063,0.634,0.296,1.17,0.56,1.561
							c0.542,0.794,1.137,0.996,1.151,0.947c0.052-0.07-0.439-0.373-0.846-1.131c-0.201-0.374-0.372-0.862-0.403-1.415
							c-0.016-0.275,0.002-0.566,0.068-0.855c0.061-0.312,0.191-0.56,0.307-0.523c0.147,0.005,0.386,0.253,0.495,0.51
							c0.139,0.272,0.247,0.55,0.329,0.821c0.16,0.543,0.216,1.059,0.217,1.492C80.068,372.101,79.888,372.635,79.965,372.66z"/>
					</g>
				</g>
			</g>
			<g>
				<g>
					<path style="fill:#263238;" d="M140.219,253.398c0,0-46.209-19.382-60.518-20.212c-8.974-0.521-15.76,5.244-14.54,14.529
						c0.61,4.645,13.381,59.015,13.381,59.015l19.478-8.898l-9.355-37.587l37.958,18.455L140.219,253.398z"/>
				</g>
				<g>
					<g>
						<path style="fill:#455A64;" d="M82.829,250.729c-0.15,0.129,1.385,2.102,2.99,4.714c1.618,2.605,2.696,4.86,2.879,4.783
							c0.166-0.063-0.649-2.48-2.301-5.14C84.758,252.419,82.96,250.608,82.829,250.729z"/>
					</g>
				</g>
				<g>
					<g>
						<path style="fill:#455A64;" d="M79.046,252.888c-0.097,0.17,2.237,1.651,4.971,3.668c2.742,2.008,4.851,3.794,4.985,3.65
							c0.125-0.128-1.803-2.161-4.582-4.198C81.647,253.964,79.131,252.731,79.046,252.888z"/>
					</g>
				</g>
			</g>
			<g>
				<g>
					<path style="fill:#263238;" d="M176.274,265.06c0,0-5.815,7.487-11.357,9.536c-6.964,2.574-58.457,26.869-58.457,26.869
						s-9.339,69.385-8.6,66.489l-21.551-0.519l2.344-63.911c0.281-8.187,6.838-17.581,13.885-21.759l47.681-28.366L176.274,265.06z"
						/>
				</g>
				<g>
					<g>
						<path style="fill:#455A64;" d="M78.243,315.219c0.023,0,0.053-0.301,0.088-0.876c0.034-0.644,0.077-1.478,0.131-2.514
							c0.124-2.179,0.243-5.345,0.853-9.189c0.635-3.808,1.799-8.412,4.656-12.669c1.418-2.12,3.318-4.044,5.54-5.721
							c2.22-1.684,4.722-3.157,7.312-4.626c10.37-5.943,19.322-11.999,25.938-16.153c3.296-2.098,5.977-3.772,7.841-4.912
							c0.882-0.544,1.593-0.983,2.142-1.321c0.487-0.307,0.738-0.477,0.726-0.498c-0.012-0.02-0.285,0.111-0.794,0.379
							c-0.508,0.27-1.259,0.668-2.208,1.212c-1.907,1.071-4.63,2.685-7.961,4.733c-6.687,4.053-15.684,10.046-26.02,15.97
							c-2.593,1.471-5.121,2.963-7.379,4.687c-2.259,1.715-4.213,3.711-5.656,5.901c-2.904,4.396-4.028,9.089-4.611,12.945
							c-0.555,3.891-0.599,7.069-0.642,9.254c-0.002,1.037-0.003,1.873-0.004,2.519C78.204,314.916,78.22,315.219,78.243,315.219z"
							/>
					</g>
				</g>
			</g>
			<g>
				<g>
					<path style="fill:#455A64;" d="M157.254,272.372c0.076-0.086-0.548-0.67-1.319-1.775c-0.774-1.099-1.627-2.778-2.038-4.785
						c-0.401-2.01-0.267-3.888,0.02-5.201c0.281-1.318,0.629-2.098,0.526-2.148c-0.062-0.036-0.574,0.681-0.991,2.029
						c-0.422,1.338-0.645,3.331-0.22,5.455c0.434,2.122,1.413,3.871,2.321,4.94C156.46,271.968,157.21,272.43,157.254,272.372z"/>
				</g>
			</g>
			<g>
				<g>
					<path style="fill:#455A64;" d="M84.225,367.434c0.012,0.001,0.034-0.119,0.067-0.355c0.034-0.275,0.076-0.62,0.129-1.049
						c0.104-0.974,0.248-2.325,0.432-4.039c0.35-3.564,0.848-8.631,1.462-14.87c0.299-3.145,0.626-6.584,0.976-10.273
						c0.357-3.691,0.726-7.64,1.015-11.797c0.322-4.153,0.716-8.508,1.473-12.965c0.783-4.443,1.943-9.009,3.959-13.342
						c1.982-4.347,4.791-8.147,7.825-11.473c3.078-3.301,6.414-6.134,9.758-8.598c6.7-4.932,13.313-8.532,18.756-11.709
						c5.47-3.142,9.828-5.822,12.727-7.84c1.456-0.998,2.56-1.813,3.295-2.381c0.339-0.268,0.613-0.483,0.831-0.654
						c0.185-0.15,0.276-0.232,0.269-0.241c-0.007-0.009-0.112,0.054-0.311,0.186c-0.228,0.157-0.514,0.354-0.87,0.599
						c-0.76,0.532-1.886,1.31-3.362,2.272c-2.938,1.946-7.32,4.555-12.818,7.642c-5.471,3.123-12.121,6.684-18.889,11.622
						c-3.377,2.467-6.754,5.315-9.876,8.65c-3.079,3.361-5.934,7.212-7.953,11.64c-2.05,4.407-3.218,9.032-3.998,13.514
						c-0.754,4.495-1.135,8.87-1.441,13.03c-0.273,4.164-0.62,8.107-0.953,11.8c-0.321,3.69-0.62,7.13-0.893,10.276
						c-0.523,6.246-0.948,11.318-1.246,14.886c-0.129,1.719-0.231,3.074-0.305,4.051c-0.025,0.431-0.046,0.779-0.062,1.055
						C84.213,367.31,84.214,367.433,84.225,367.434z"/>
				</g>
			</g>
		</g>
		<g>
			<g>
				<path style="fill:#263238;" d="M134.973,143.336c-1.332-3.77-5.752-6.148-9.632-5.182c-0.892,0.222-1.765,0.598-2.684,0.578
					c-1.127-0.025-2.153-0.64-3.258-0.861c-2.379-0.475-4.98,1.211-5.518,3.577c-1.89-0.389-3.994-0.122-5.496,1.09
					c-1.502,1.213-2.196,3.48-1.284,5.181c0.391,0.73,1.03,1.309,1.387,2.056c0.588,1.232,0.32,2.71,0.733,4.011
					c0.612,1.928,2.65,3.118,4.66,3.347c2.01,0.228,4.018-0.318,5.968-0.858"/>
			</g>
			<g>
				<g>
					<g>
						<g>
							<g>
								<g>
									<g>
										<g>
											<g>
												<g>
													<path style="fill:#B78876;" d="M125.695,182.885c-0.253-1.935-0.42-3.292-0.42-3.292s-6.442-0.044-9.045-8.027
														c-1.294-3.97-2.151-10.68-2.675-16.193c-0.471-4.962,3.279-9.318,8.257-9.578l17.12-0.896l0.368,2.652l4.511,32.915
														c0.688,5.022-2.842,9.645-7.868,10.303l0,0C130.938,191.424,126.349,187.891,125.695,182.885z"/>
												</g>
											</g>
										</g>
									</g>
									<g>
										<g>
											<g>
												<g>
													<g>
														<path style="fill:#263238;" d="M115.981,160.098c0.069,0.558,0.597,0.96,1.181,0.899
															c0.583-0.061,1.001-0.561,0.932-1.119c-0.069-0.558-0.597-0.96-1.18-0.899
															C116.33,159.039,115.912,159.541,115.981,160.098z"/>
													</g>
												</g>
											</g>
										</g>
										<g>
											<g>
												<g>
													<g>
														<g>
															<path style="fill:#263238;" d="M115.557,158.617c0.152,0.116,0.854-0.599,1.985-0.776
																c1.127-0.192,2.049,0.257,2.149,0.099c0.05-0.071-0.121-0.297-0.524-0.502c-0.397-0.206-1.044-0.364-1.748-0.249
																c-0.703,0.116-1.254,0.469-1.553,0.789C115.561,158.299,115.483,158.566,115.557,158.617z"/>
														</g>
													</g>
												</g>
											</g>
										</g>
									</g>
									<g>
										<g>
											<g>
												<g>
													<g>
														<path style="fill:#263238;" d="M126.722,158.276c0.069,0.558,0.597,0.96,1.181,0.899
															c0.583-0.061,1.001-0.561,0.932-1.119c-0.068-0.558-0.598-0.96-1.18-0.9
															C127.072,157.217,126.654,157.718,126.722,158.276z"/>
													</g>
												</g>
											</g>
										</g>
										<g>
											<g>
												<g>
													<g>
														<g>
															<path style="fill:#263238;" d="M126.699,157.062c0.152,0.116,0.855-0.599,1.985-0.776
																c1.127-0.193,2.049,0.257,2.149,0.099c0.05-0.071-0.12-0.297-0.525-0.502c-0.397-0.205-1.044-0.363-1.747-0.249
																c-0.703,0.116-1.254,0.469-1.552,0.789C126.705,156.744,126.626,157.01,126.699,157.062z"/>
														</g>
													</g>
												</g>
											</g>
										</g>
									</g>
									<g>
										<g>
											<g>
												<g>
													<g>
														<path style="fill:#263238;" d="M123.93,166.095c-0.005-0.065-0.727-0.075-1.889-0.039
															c-0.293,0.016-0.575,0.002-0.655-0.187c-0.101-0.198-0.03-0.528,0.057-0.886c0.16-0.742,0.328-1.519,0.504-2.333
															c0.688-3.317,1.137-6.026,1.003-6.053c-0.134-0.027-0.8,2.641-1.488,5.958c-0.163,0.817-0.318,1.596-0.466,2.341
															c-0.057,0.345-0.186,0.747,0.03,1.156c0.112,0.203,0.349,0.326,0.542,0.347c0.194,0.027,0.357,0.004,0.501-0.01
															C123.224,166.268,123.936,166.16,123.93,166.095z"/>
													</g>
												</g>
											</g>
										</g>
									</g>
									<g>
										<g>
											<g>
												<g>
													<path style="fill:#AA6550;" d="M125.275,179.593c0,0,5.566-0.521,10.502-4.669c0,0-1.767,6.049-10.085,6.585
														L125.275,179.593z"/>
												</g>
											</g>
										</g>
									</g>
									<g>
										<g>
											<g>
												<g>
													<g>
														<path style="fill:#263238;" d="M127.38,166.348c-0.186,0.018,0.007,1.246-0.904,2.283
															c-0.909,1.04-2.239,1.11-2.221,1.283c-0.005,0.08,0.329,0.192,0.883,0.119c0.544-0.067,1.307-0.367,1.865-1.002
															c0.556-0.636,0.718-1.392,0.68-1.902C127.648,166.61,127.463,166.328,127.38,166.348z"/>
													</g>
												</g>
											</g>
										</g>
									</g>
								</g>
							</g>
						</g>
						<g>
							<g>
								<g>
									<g>
										<path style="fill:#263238;" d="M125.703,152.679c0.16,0.29,1.266-0.036,2.617-0.087c1.35-0.078,2.481,0.14,2.613-0.163
											c0.058-0.144-0.175-0.404-0.654-0.633c-0.476-0.229-1.204-0.402-2.015-0.365c-0.81,0.04-1.519,0.282-1.97,0.555
											C125.839,152.26,125.632,152.541,125.703,152.679z"/>
									</g>
								</g>
							</g>
						</g>
						<g>
							<g>
								<g>
									<g>
										<path style="fill:#263238;" d="M115.452,155.28c0.24,0.225,0.976-0.165,1.91-0.327c0.929-0.194,1.756-0.102,1.896-0.4
											c0.059-0.143-0.106-0.38-0.492-0.568c-0.38-0.188-0.982-0.295-1.622-0.173c-0.64,0.123-1.161,0.444-1.445,0.759
											C115.411,154.887,115.344,155.169,115.452,155.28z"/>
									</g>
								</g>
							</g>
						</g>
						<g>
							<g>
								<g>
									<g>
										<path style="fill:#263238;" d="M112.706,151.783c0,0,4.53,1.526,9.734-1.951c3.415-2.281,7.551-3.709,8.581-3.094
											c1.03,0.614,1.703,4.345,5.453,4.984c0,0,0.66,7.198,3.485,6.58c2.013-0.44,0.836-8.381-0.007-12.909
											c-0.338-1.815-1.893-3.147-3.738-3.218l-5.273-0.204l-6.583,1.837l-7.059,1.924l-5.368,2.227L112.706,151.783z"/>
									</g>
								</g>
							</g>
						</g>
					</g>
					<g>
						<g>
							<g>
								<g>
									<g>
										<g>
											<path style="fill:#B78876;" d="M139.327,155.392c0.108-0.075,4.477-2.373,5.285,2.395
												c0.808,4.769-4.146,4.597-4.177,4.462C140.403,162.113,139.327,155.392,139.327,155.392z"/>
										</g>
									</g>
								</g>
							</g>
						</g>
						<g>
							<g>
								<g>
									<g>
										<g>
											<g>
												<path style="fill:#AA6550;" d="M141.585,160.195c0.018-0.019,0.093,0.044,0.244,0.085
													c0.148,0.039,0.39,0.043,0.623-0.093c0.472-0.27,0.761-1.142,0.638-2.005c-0.062-0.436-0.223-0.834-0.434-1.15
													c-0.205-0.324-0.472-0.53-0.733-0.532c-0.262-0.016-0.416,0.167-0.452,0.311c-0.041,0.144,0.005,0.234-0.019,0.247
													c-0.011,0.014-0.116-0.062-0.111-0.266c0.004-0.098,0.04-0.22,0.137-0.331c0.099-0.113,0.259-0.188,0.439-0.199
													c0.372-0.037,0.76,0.245,0.993,0.592c0.253,0.345,0.444,0.791,0.513,1.281c0.133,0.966-0.207,1.949-0.862,2.265
													c-0.321,0.144-0.618,0.091-0.781,0.002C141.613,160.309,141.57,160.206,141.585,160.195z"/>
											</g>
										</g>
									</g>
								</g>
							</g>
						</g>
					</g>
				</g>
			</g>
			<g>
				<g>
					<path style="fill:#455A64;" d="M114.998,139.694c0.042-0.02,0.166,0.252,0.504,0.64c0.332,0.39,0.935,0.862,1.803,1.157
						c0.867,0.305,1.976,0.39,3.176,0.14c1.204-0.228,2.474-0.741,3.848-1.223c1.374-0.479,2.777-0.819,4.086-0.728
						c1.31,0.058,2.45,0.658,3.104,1.396c0.679,0.728,0.946,1.54,0.953,2.089c0.016,0.554-0.122,0.837-0.143,0.829
						c-0.047-0.008,0.017-0.302-0.059-0.809c-0.066-0.503-0.363-1.217-1.015-1.852c-0.643-0.646-1.653-1.141-2.868-1.174
						c-1.208-0.059-2.538,0.27-3.888,0.741c-1.354,0.474-2.66,0.988-3.932,1.203c-1.264,0.239-2.483,0.109-3.39-0.266
						c-0.917-0.362-1.533-0.923-1.835-1.377C115.033,140.005,114.974,139.702,114.998,139.694z"/>
				</g>
			</g>
			<g>
				<g>
					<path style="fill:#455A64;" d="M131.109,144.26c-0.038,0.031-0.243-0.253-0.739-0.597c-0.487-0.348-1.324-0.68-2.4-0.71
						c-1.081-0.052-2.342,0.26-3.643,0.89c-1.312,0.599-2.681,1.489-4.337,2.028c-3.355,1.079-6.64,0.197-8.545-0.935
						c-0.976-0.563-1.674-1.159-2.104-1.614c-0.43-0.456-0.625-0.742-0.602-0.761c0.076-0.082,0.941,1.037,2.883,2.051
						c1.887,1.014,5.035,1.785,8.208,0.763c1.569-0.506,2.94-1.374,4.298-1.969c1.343-0.624,2.723-0.928,3.862-0.821
						c1.143,0.08,2.025,0.495,2.503,0.916C130.98,143.919,131.129,144.25,131.109,144.26z"/>
				</g>
			</g>
		</g>
		<g>
			<path style="fill:#283384;" d="M95.649,202.803"/>
		</g>
		<g>
			<g>
				<g>
					<g>
						<g>
							<path style="fill:#B78876;" d="M116.3,225.522l-23.223-19.794l-7.657,1.732c0,0,8.069,16.776,13.91,22.925
								c0,0,5.772,7.726,15.287,4.386C124.133,231.432,116.3,225.522,116.3,225.522z"/>
						</g>
					</g>
				</g>
			</g>
			<g>
				<g>
					<g>
						<g>
							<path style="fill:#455A64;" d="M91.324,183.934h-9.87c-1.493,0-2.826,1.731-2.29,3.146l9.926,19.333
								c0.384,0.749,1.156,1.22,1.999,1.22l12.033-0.025c1.38-0.186,1.883-1.717,1.312-2.547l-9.577-18.927
								C94.197,184.787,92.826,183.934,91.324,183.934z"/>
						</g>
					</g>
				</g>
				<g>
					<g>
						<g>
							<path style="fill:#263238;" d="M90.657,185.098h-9.87c-1.237,0-2.037,1.304-1.474,2.402l9.69,18.912
								c0.384,0.749,1.156,1.22,1.999,1.22h11.896c0.725,0,1.196-0.763,0.869-1.408l-9.577-18.927
								C93.53,185.951,92.159,185.098,90.657,185.098z"/>
						</g>
					</g>
				</g>
			</g>
			<g>
				<g>
					<g>
						<g>
							<path style="fill:#B78876;" d="M89.82,193.016l-6.006,2.4l-1.287,4.84l2.893,7.205l10.614,1.544l-3.109-3.177l0.4-2.766
								c0,0,2.961-0.929,3.034-1.382c0.073-0.453-0.367-1.973-0.821-2.046c-0.454-0.073-3.56,1.083-3.56,1.083
								s3.676-2.91,3.574-3.378c-0.103-0.468-0.498-1.663-1.231-1.796c-0.733-0.133-6.666,2.663-6.666,2.663l-0.963,2.196
								l-0.84-3.512C85.851,196.89,91.123,195.412,89.82,193.016z"/>
						</g>
					</g>
				</g>
				<g>
					<g>
						<g>
							<g>
								<path style="fill:#AA6550;" d="M90.576,204.363c-0.035,0.011-0.148-0.208-0.203-0.599c-0.057-0.388-0.029-0.948,0.18-1.516
									c0.211-0.568,0.555-1.011,0.85-1.268c0.296-0.26,0.524-0.354,0.544-0.322c0.059,0.072-0.723,0.635-1.104,1.698
									C90.439,203.411,90.667,204.347,90.576,204.363z"/>
							</g>
						</g>
					</g>
				</g>
				<g>
					<g>
						<g>
							<g>
								<path style="fill:#AA6550;" d="M87.721,203.315c-0.035-0.018,0.178-0.586,0.238-1.574c0.047-0.489,0.074-1.097,0.302-1.743
									c0.115-0.32,0.285-0.652,0.553-0.93c0.268-0.281,0.623-0.474,0.981-0.617c1.437-0.521,2.73-0.943,3.677-1.249
									c0.945-0.301,1.537-0.467,1.551-0.427c0.014,0.041-0.552,0.28-1.479,0.634c-0.922,0.357-2.224,0.818-3.633,1.329
									c-0.341,0.137-0.651,0.305-0.88,0.541c-0.232,0.235-0.39,0.526-0.503,0.818c-0.225,0.59-0.278,1.178-0.352,1.669
									C88.06,202.763,87.762,203.34,87.721,203.315z"/>
							</g>
						</g>
					</g>
				</g>
				<g>
					<g>
						<g>
							<g>
								<path style="fill:#AA6550;" d="M86.343,202.229c-0.084-0.014-0.067-0.544,0.038-1.184c0.106-0.64,0.26-1.148,0.344-1.134
									c0.084,0.014,0.067,0.544-0.038,1.184C86.582,201.736,86.428,202.243,86.343,202.229z"/>
							</g>
						</g>
					</g>
				</g>
			</g>
			<g>
				<g>
					<g>
						<path style="fill:#FAFAFA;" d="M86.182,188.746c0,0.695,0.563,1.257,1.257,1.257c0.695,0,1.258-0.563,1.258-1.257
							c0-0.695-0.563-1.258-1.258-1.258C86.745,187.488,86.182,188.051,86.182,188.746z"/>
					</g>
				</g>
			</g>
		</g>
	</g>
</g>
<g id="Plant">
	<g>
		<g>
			<g>
				<path style="fill:#283384;" d="M51.599,379.359c3.158,0.857,5.743,3.285,7.283,6.172c1.54,2.888,2.123,6.202,2.227,9.473
					c0.201,6.329-2.422,13.129-5.508,18.658c-5.909-3.813-8.277-11.619-9.229-15.655C44.867,391.63,46.02,379.188,51.599,379.359"/>
			</g>
		</g>
		<g>
			<g>
				<path style="fill:#283384;" d="M63.192,423.052c-1.351-3.397-0.449-7.47,1.902-10.27c2.351-2.8,5.976-4.368,9.624-4.617
					c1.687-0.115,3.56,0.109,4.715,1.343c1.08,1.154,1.24,2.96,0.717,4.451c-0.523,1.491-1.626,2.71-2.829,3.734
					C73.193,421.206,68.553,423.846,63.192,423.052"/>
			</g>
		</g>
		<g>
			<g>
				<g>
					<path style="fill:#263238;" d="M59.247,443.121c-0.033-0.003-0.027-0.467,0.001-1.305c0.034-0.923,0.078-2.116,0.131-3.55
						c0.159-2.974,0.301-7.221,1.961-11.565c1.632-4.33,4.303-7.733,6.701-9.577c1.187-0.939,2.257-1.551,3.024-1.9
						c0.376-0.191,0.692-0.289,0.896-0.372c0.208-0.077,0.32-0.109,0.326-0.095c0.052,0.096-1.753,0.699-4.041,2.618
						c-2.301,1.875-4.872,5.232-6.478,9.489c-1.629,4.255-1.825,8.451-2.065,11.421c-0.107,1.495-0.194,2.707-0.277,3.542
						C59.344,442.663,59.278,443.124,59.247,443.121z"/>
				</g>
			</g>
		</g>
		<g>
			<g>
				<g>
					<path style="fill:#263238;" d="M51.559,388.912c0.015-0.003,0.065,0.186,0.145,0.549c0.085,0.411,0.194,0.938,0.329,1.591
						c0.278,1.383,0.653,3.389,1.097,5.872c0.888,4.965,2.018,11.842,3.095,19.463c1.075,7.624,1.892,14.546,2.413,19.563
						c0.261,2.509,0.456,4.54,0.572,5.946c0.051,0.664,0.092,1.201,0.124,1.62c0.023,0.371,0.028,0.566,0.012,0.568
						c-0.016,0.001-0.051-0.191-0.104-0.558c-0.054-0.416-0.124-0.95-0.21-1.611c-0.176-1.457-0.419-3.468-0.716-5.928
						c-0.603-5.006-1.471-11.916-2.545-19.535c-1.076-7.616-2.155-14.496-2.96-19.473c-0.395-2.447-0.718-4.446-0.952-5.895
						c-0.1-0.659-0.181-1.191-0.244-1.606C51.562,389.109,51.543,388.915,51.559,388.912z"/>
				</g>
			</g>
		</g>
		<g>
			<g>
				<path style="fill:#283384;" d="M54.673,428.163c-2.29-7.36-8.358-13.431-15.716-15.725c-1.874-0.584-4.242-0.799-5.492,0.713
					c-1.253,1.515-0.588,3.811,0.381,5.521c4.034,7.116,12.697,11.294,20.777,10.02"/>
			</g>
		</g>
		<g>
			<g>
				<g>
					<path style="fill:#263238;" d="M40.666,418.22c0.009-0.03,0.429,0.086,1.183,0.323c0.378,0.116,0.84,0.26,1.355,0.487
						c0.514,0.226,1.125,0.43,1.747,0.771c0.631,0.321,1.331,0.658,2.031,1.112c0.726,0.413,1.449,0.934,2.206,1.487
						c1.485,1.143,3.017,2.543,4.395,4.218c1.363,1.689,2.431,3.469,3.242,5.16c0.38,0.859,0.744,1.673,0.989,2.472
						c0.295,0.781,0.472,1.538,0.645,2.225c0.198,0.681,0.258,1.323,0.362,1.875c0.106,0.552,0.14,1.036,0.165,1.43
						c0.056,0.789,0.072,1.224,0.041,1.226c-0.103,0.011-0.176-1.743-0.882-4.452c-0.191-0.673-0.383-1.414-0.689-2.178
						c-0.257-0.781-0.628-1.577-1.012-2.416c-0.819-1.653-1.878-3.393-3.216-5.052c-1.354-1.646-2.849-3.029-4.297-4.173
						c-0.739-0.553-1.442-1.079-2.149-1.499c-0.681-0.462-1.364-0.81-1.978-1.146C42.316,418.803,40.633,418.314,40.666,418.22z"/>
				</g>
			</g>
		</g>
	</g>
</g>
</svg>
